<svg width="819" height="819" viewBox="0 0 819 819" fill="none" xmlns="http://www.w3.org/2000/svg">
<path d="M0.0999756 409.447C0.0999756 523.649 46.8853 626.885 122.347 701.087C136.373 714.885 151.427 727.649 167.333 739.333C170.173 741.447 173.04 743.513 175.96 745.536C242.12 791.513 322.44 818.435 409.093 818.435C432.907 818.435 456.28 816.412 478.973 812.503C488.64 810.84 498.173 808.817 507.6 806.48C539.88 798.525 570.613 786.705 599.333 771.559C634.16 753.267 665.987 730.076 693.987 702.884C770.52 628.593 818.08 524.592 818.08 409.447C818.08 318.387 788.373 234.293 737.987 166.347C733.227 159.88 728.28 153.533 723.107 147.373C648.093 57.5865 535.24 0.453278 409.093 0.453278C381.667 0.453278 354.88 3.15994 329 8.31994C304.547 13.1333 280.907 20.1465 258.253 29.1732C255.653 30.2132 253.04 31.2932 250.48 32.3732C164.773 68.4132 93.9466 132.867 49.7626 213.987C34.1226 242.667 21.8066 273.44 13.3573 305.813C5.98793 333.893 1.58269 363.16 0.414689 393.267C0.189356 398.66 0.0999756 404.053 0.0999756 409.447Z" fill="#FFEDDA"/>
<path d="M496.853 779.119C383.24 779.123 231.573 748.644 243.107 583.424C247.973 513.673 229.2 460.449 199.027 419.896C212.373 380.773 228.88 346.64 247.4 316.84C285.853 359.227 311.64 417.661 306.027 498.031C294.493 663.223 446.08 693.729 559.68 693.725C566.187 693.724 572.56 693.625 578.773 693.445C560.4 721.72 538.293 750.303 511.893 778.944C506.96 779.057 501.947 779.119 496.853 779.119ZM607.813 766.976C618.52 761.008 628.933 754.572 639.013 747.693C658.613 734.325 677 719.321 693.973 702.848C693.973 702.86 693.987 702.872 693.987 702.884C668.28 727.853 639.347 749.449 607.813 766.976Z" fill="#FFE2C6"/>
<path d="M409.093 818.435C322.44 818.435 242.12 791.513 175.96 745.536C173.04 743.513 170.173 741.447 167.333 739.333C164.973 709.587 163.84 681.244 163.84 654.251C163.84 638.056 164.253 622.345 165.04 607.109C166.12 585.132 168.053 564.188 170.667 544.143C176.68 497.979 186.467 456.721 199.027 419.896C229.2 460.449 247.973 513.673 243.107 583.424C231.573 748.644 383.24 779.123 496.853 779.119C501.947 779.119 506.96 779.057 511.893 778.944C501.587 790.127 490.627 801.317 478.973 812.503C456.28 816.412 432.907 818.435 409.093 818.435ZM507.6 806.48C531.587 800.553 554.733 792.509 576.827 782.553C554.733 792.517 531.587 800.567 507.6 806.48Z" fill="#FFD8B4"/>
<path d="M247.653 42.6535L561.893 144.28L737.987 166.347C733.227 159.88 728.28 153.533 723.107 147.373C648.093 57.5867 535.24 0.45346 409.093 0.45346C381.667 0.45346 354.88 3.16013 329 8.32013C304.547 13.1335 280.907 20.1467 258.253 29.1734C255.653 30.2134 253.04 31.2934 250.48 32.3734L247.653 42.6535Z" fill="#FFCC29"/>
<path d="M0.0999756 409.447C0.0999756 523.649 46.8853 626.885 122.347 701.087C136.373 714.885 151.427 727.649 167.333 739.333C163.56 691.739 162.933 647.739 165.04 607.109C166.12 585.132 168.053 564.188 170.667 544.143C222.307 148.147 549.987 114.973 549.987 114.973C517.173 85.8933 430.48 29.04 329 8.32001C304.547 13.1333 280.907 20.1466 258.253 29.1733C154.307 70.4399 71.2934 153.04 29.5373 256.773C20.368 279.52 13.1786 303.293 8.23461 327.88C3.91994 349.133 1.26802 370.973 0.414689 393.267C0.189356 398.66 0.0999756 404.053 0.0999756 409.447Z" fill="#81B214"/>
<path d="M478.973 812.503C488.64 810.84 498.173 808.817 507.6 806.48C555.24 794.705 599.6 774.569 639.013 747.693C660.813 732.817 681.133 715.919 699.653 697.221C772.867 623.379 818.08 521.671 818.08 409.447C818.08 309.72 782.44 218.347 723.107 147.373C673.8 125.667 619.52 114.44 567.787 129.853L588.733 178.84C588.733 178.84 697.093 337.667 646.08 541.536C637.453 576.099 624.187 611.964 605.04 648.548C577.04 702.165 536.373 757.401 478.973 812.503Z" fill="#81B214"/>
<path d="M489.68 95.0134C478.147 114.973 495.813 146.76 529.133 166C562.453 185.24 598.813 184.64 610.333 164.667C621.867 144.693 604.2 112.92 570.88 93.6801C537.56 74.4401 501.213 75.0401 489.68 95.0134Z" fill="#206A5D"/>
<path d="M1.15723 379.72C2.69189 358.227 5.89594 337.2 10.6333 316.76C9.9946 319.534 9.38257 322.32 8.80124 325.107C7.36257 331.947 6.09731 338.867 5.00931 345.827C3.26398 356.987 1.97456 368.294 1.15723 379.72Z" fill="#E6ECD4"/>
<path d="M5.00928 345.827C6.09728 338.867 7.36254 331.947 8.8012 325.107C8.6092 326.027 8.41987 326.947 8.23454 327.88C7.0292 333.813 5.95194 339.8 5.00928 345.827Z" fill="#E6C896"/>
<path d="M165.013 607.108C123.88 604.404 45.136 586.185 58.5266 485.852C69.312 404.817 36.3239 354.84 8.23457 327.88C4.79724 344.813 2.41589 362.107 1.15723 379.72C1.97456 368.293 3.26398 356.987 5.00931 345.827C5.95198 339.8 7.02924 333.813 8.23457 327.88C8.4199 326.947 8.60924 326.027 8.80124 325.107C9.38257 322.32 9.9946 319.533 10.6333 316.76C15.4173 296.12 21.7653 276.08 29.5373 256.773C58.6613 279.067 107.293 331.52 94.4799 427.424C83.9599 506.301 130.347 534.436 170.667 544.143C168.04 564.189 166.133 585.16 165.013 607.108Z" fill="#75A411"/>
<path d="M0.435913 392.713C0.437246 392.687 0.437314 392.661 0.438647 392.635C0.437314 392.66 0.437246 392.687 0.435913 392.713Z" fill="#E6ECD4"/>
<path d="M0.45874 392.16C0.460074 392.128 0.461313 392.091 0.462646 392.059C0.461313 392.092 0.460074 392.125 0.45874 392.16Z" fill="#E6ECD4"/>
<path d="M0.481323 391.608C0.482657 391.568 0.483995 391.532 0.486662 391.491C0.483995 391.528 0.482657 391.571 0.481323 391.608Z" fill="#E6ECD4"/>
<path d="M0.505371 391.051C0.506704 391.015 0.508074 390.98 0.509408 390.944C0.508074 390.979 0.506704 391.016 0.505371 391.051Z" fill="#E6ECD4"/>
<path d="M0.555908 389.933C0.557242 389.904 0.558611 389.872 0.559945 389.843C0.558611 389.873 0.557242 389.903 0.555908 389.933Z" fill="#E6ECD4"/>
<path d="M0.581299 389.372C0.582632 389.345 0.583872 389.316 0.585205 389.289C0.583872 389.319 0.582632 389.344 0.581299 389.372Z" fill="#E6ECD4"/>
<path d="M0.609375 388.792C0.610708 388.777 0.610646 388.764 0.611979 388.749C0.611979 388.763 0.610708 388.779 0.609375 388.792Z" fill="#E6ECD4"/>
<path d="M0.857178 384.28C0.857178 384.272 0.857277 384.269 0.85861 384.261C0.857277 384.268 0.857178 384.273 0.857178 384.28Z" fill="#E6ECD4"/>
<path d="M0.889282 383.745C0.890616 383.716 0.893287 383.686 0.894621 383.657C0.893287 383.685 0.890616 383.716 0.889282 383.745Z" fill="#E6ECD4"/>
<path d="M0.922607 383.203C0.925274 383.165 0.928014 383.123 0.93068 383.084C0.928014 383.124 0.925274 383.164 0.922607 383.203Z" fill="#E6ECD4"/>
<path d="M0.957275 382.671C0.959942 382.618 0.963984 382.567 0.96665 382.515C0.963984 382.567 0.959942 382.619 0.957275 382.671Z" fill="#E6ECD4"/>
<path d="M0.991943 382.133C0.995943 382.076 0.999923 382.012 1.00392 381.947C0.999923 382.013 0.995943 382.075 0.991943 382.133Z" fill="#E6ECD4"/>
<path d="M1.06128 381.093C1.06795 381.013 1.07326 380.92 1.0786 380.84C1.07326 380.92 1.06661 381.013 1.06128 381.093Z" fill="#E6ECD4"/>
<path d="M167.333 739.333C163.547 691.735 162.933 647.751 165.013 607.108C165.027 607.108 165.027 607.109 165.04 607.109C164.253 622.345 163.84 638.056 163.84 654.251C163.84 681.244 164.973 709.587 167.333 739.333ZM0.414673 393.267C0.42134 393.081 0.427897 392.899 0.435897 392.713C0.427897 392.897 0.42134 393.083 0.414673 393.267ZM0.438631 392.635C0.445298 392.477 0.452017 392.317 0.458683 392.16C0.452017 392.319 0.445298 392.476 0.438631 392.635ZM0.46259 392.059C0.467923 391.907 0.474673 391.76 0.48134 391.608C0.474673 391.757 0.467923 391.909 0.46259 392.059ZM0.486678 391.491C0.492011 391.343 0.498631 391.199 0.505298 391.051C0.498631 391.196 0.492011 391.344 0.486678 391.491ZM0.559985 389.843C0.566652 389.687 0.574673 389.528 0.58134 389.372C0.574673 389.531 0.566652 389.684 0.559985 389.843ZM0.585246 389.289C0.593246 389.124 0.601334 388.957 0.609334 388.792C0.601334 388.959 0.593246 389.123 0.585246 389.289ZM0.611938 388.749C0.621272 388.568 0.629298 388.392 0.638631 388.211C0.629298 388.389 0.621272 388.571 0.611938 388.749ZM0.639933 388.2C0.705267 386.891 0.778584 385.587 0.857251 384.28C0.778584 385.585 0.705267 386.892 0.639933 388.2ZM0.858683 384.261C0.868017 384.089 0.878616 383.917 0.889282 383.745C0.878616 383.917 0.868017 384.088 0.858683 384.261ZM0.930688 383.084C0.940022 382.945 0.947918 382.809 0.957251 382.671C0.947918 382.808 0.940022 382.948 0.930688 383.084ZM0.966626 382.515C0.975959 382.388 0.984017 382.261 0.992017 382.133C0.984017 382.263 0.975959 382.387 0.966626 382.515ZM1.004 381.947C1.01066 381.84 1.01865 381.72 1.02665 381.613C1.01865 381.733 1.012 381.84 1.004 381.947ZM1.07861 380.84C1.08394 380.747 1.09059 380.667 1.09592 380.587C1.09059 380.667 1.08394 380.76 1.07861 380.84Z" fill="#75A411"/>
<path d="M167.333 739.333C151.427 727.649 136.373 714.885 122.347 701.087C46.8853 626.885 0.0999756 523.649 0.0999756 409.447C0.0999756 404.053 0.189356 398.66 0.414689 393.267C0.421356 393.083 0.427913 392.897 0.435913 392.713C0.437246 392.687 0.437314 392.66 0.438647 392.635C0.445314 392.476 0.452033 392.319 0.4587 392.16C0.460033 392.125 0.461272 392.092 0.462606 392.059C0.467939 391.909 0.474689 391.757 0.481356 391.608C0.482689 391.571 0.484028 391.528 0.486694 391.491C0.492028 391.344 0.498647 391.196 0.505314 391.051C0.506647 391.016 0.508017 390.979 0.509351 390.944C0.516017 390.795 0.522606 390.647 0.529272 390.497C0.530606 390.459 0.533278 390.424 0.534611 390.385C0.541278 390.236 0.547965 390.083 0.555965 389.933C0.557299 389.903 0.558668 389.873 0.560002 389.843C0.566668 389.684 0.574689 389.531 0.581356 389.372C0.582689 389.344 0.583929 389.319 0.585262 389.289C0.593262 389.123 0.601351 388.959 0.609351 388.792C0.610684 388.779 0.611955 388.763 0.611955 388.749C0.621288 388.571 0.629314 388.389 0.638647 388.211C0.638647 388.208 0.63995 388.203 0.63995 388.2C0.705283 386.892 0.778601 385.585 0.857267 384.28C0.857267 384.273 0.857366 384.268 0.8587 384.261C0.868033 384.088 0.878632 383.917 0.889299 383.745C0.890632 383.716 0.893304 383.685 0.894637 383.657C0.90397 383.505 0.913299 383.355 0.922632 383.203C0.925299 383.164 0.928038 383.124 0.930705 383.084C0.940038 382.948 0.947934 382.808 0.957267 382.671C0.959934 382.619 0.963976 382.567 0.966642 382.515C0.975976 382.387 0.984033 382.263 0.992033 382.133C0.996033 382.075 1.00001 382.013 1.00401 381.947C1.01201 381.84 1.01867 381.733 1.02667 381.613C1.03067 381.547 1.03592 381.467 1.04125 381.4C1.04792 381.293 1.05464 381.187 1.0613 381.093C1.06664 381.013 1.07329 380.92 1.07862 380.84C1.08395 380.76 1.09061 380.667 1.09594 380.587C1.10261 380.48 1.10929 380.387 1.11729 380.293C1.12129 380.227 1.1267 380.16 1.1307 380.093C1.1387 379.973 1.14663 379.853 1.15597 379.747C1.15597 379.733 1.15727 379.72 1.15727 379.72C2.41593 362.107 4.79728 344.813 8.23461 327.88C36.3239 354.84 69.312 404.817 58.5267 485.852C45.136 586.185 123.88 604.404 165.013 607.108C162.933 647.751 163.547 691.735 167.333 739.333Z" fill="#6A980E"/>
<path d="M605.04 648.548C624.187 611.964 637.453 576.099 646.08 541.536C666.52 561.267 688.867 595.02 669.76 638.66C658.44 664.548 674.48 683.513 699.653 697.221C681.133 715.919 660.813 732.817 639.013 747.693C607.693 733.761 584.907 713.177 597.853 683.604C603.333 671.064 605.4 659.333 605.04 648.548Z" fill="#75A411"/>
<path d="M478.973 812.503C536.373 757.401 577.04 702.165 605.04 648.548C605.4 659.333 603.333 671.064 597.853 683.604C584.907 713.177 607.693 733.761 639.013 747.693C599.6 774.569 555.24 794.705 507.6 806.48C498.173 808.817 488.64 810.84 478.973 812.503Z" fill="#6A980E"/>
<path d="M788.973 561.235C788.986 561.211 789 561.177 789.013 561.153C789 561.18 788.986 561.208 788.973 561.235ZM789.16 560.799C806.44 517.447 816.506 470.432 817.906 421.26C816.52 470.443 806.44 517.445 789.16 560.799ZM817.906 421.236C817.92 420.916 817.92 420.603 817.933 420.283C817.92 420.601 817.92 420.917 817.906 421.236ZM817.96 419.505C817.96 419.361 817.96 419.221 817.96 419.079C817.96 419.223 817.96 419.361 817.96 419.505ZM817.973 418.887C817.973 418.771 817.973 418.661 817.973 418.545C817.973 418.66 817.973 418.772 817.973 418.887ZM817.987 418.265C817.987 418.184 817.987 418.099 817.987 418.017C817.987 418.101 817.987 418.181 817.987 418.265ZM818 417.644C818 417.569 818 417.503 818 417.428C818 417.5 818 417.572 818 417.644Z" fill="#FFF1E2"/>
<path d="M818 417.105C818.013 417.023 818.013 416.932 818.013 416.849C818.013 416.892 818.013 416.932 818.013 416.975V416.987C818.013 417.03 818 417.063 818 417.105Z" fill="#FFF1E2"/>
<path d="M818.08 408.101C818.067 407.992 818.067 407.876 818.067 407.767C818.067 407.877 818.067 407.991 818.08 408.101ZM818.067 407.535C818.067 407.425 818.067 407.314 818.067 407.204C818.067 407.316 818.067 407.424 818.067 407.535ZM818.067 406.967C818.067 406.857 818.067 406.748 818.067 406.639C818.067 406.75 818.067 406.856 818.067 406.967ZM818.067 406.408C818.067 406.299 818.067 406.187 818.067 406.078C818.067 406.188 818.067 406.297 818.067 406.408ZM818.067 405.841C818.053 405.732 818.053 405.617 818.053 405.508C818.053 405.624 818.053 405.725 818.067 405.841ZM818.053 405.285C818.053 405.169 818.053 405.057 818.053 404.941C818.053 405.059 818.053 405.168 818.053 405.285ZM818.04 404.164C818.04 404.012 818.04 403.86 818.04 403.708C818.04 403.863 818.04 404.01 818.04 404.164ZM818.04 403.604C818.027 403.411 818.027 403.229 818.027 403.035C818.027 403.223 818.027 403.416 818.04 403.604ZM818.027 402.987C818.027 402.818 818.027 402.651 818.013 402.482C818.027 402.654 818.027 402.816 818.027 402.987ZM818.013 402.301C818.013 402.175 818.013 402.045 818.013 401.919C818.013 402.051 818.013 402.169 818.013 402.301ZM818 401.722C818 401.6 818 401.48 818 401.359C818 401.482 818 401.6 818 401.722ZM817.987 401.15C817.987 401.028 817.987 400.917 817.987 400.796C817.987 400.912 817.987 401.034 817.987 401.15ZM817.987 400.58C817.973 400.471 817.973 400.351 817.973 400.241C817.973 400.357 817.973 400.464 817.987 400.58ZM817.973 400.016C817.96 399.9 817.96 399.784 817.96 399.669C817.96 399.785 817.96 399.9 817.973 400.016ZM817.96 399.46C817.96 399.344 817.947 399.214 817.947 399.098C817.947 399.22 817.947 399.338 817.96 399.46ZM817.947 398.901C817.933 398.775 817.933 398.644 817.933 398.517C817.933 398.649 817.933 398.769 817.947 398.901ZM817.933 398.34C817.92 398.201 817.92 398.057 817.92 397.919C817.92 398.063 817.92 398.196 817.933 398.34ZM817.907 397.782C817.907 397.407 817.893 397.024 817.88 396.65C817.893 397.024 817.907 397.406 817.907 397.782ZM817.88 396.564C817.867 396.407 817.867 396.252 817.867 396.096C817.867 396.249 817.867 396.41 817.88 396.564ZM817.853 395.929C817.853 395.796 817.853 395.669 817.84 395.536C817.853 395.669 817.853 395.797 817.853 395.929ZM817.76 393.098C817.747 392.964 817.747 392.831 817.733 392.698C817.747 392.83 817.747 392.966 817.76 393.098ZM817.733 392.545C817.733 392.395 817.72 392.248 817.72 392.098C817.72 392.246 817.733 392.397 817.733 392.545ZM817.627 390.192C817.627 390.036 817.613 389.89 817.613 389.732C817.613 389.887 817.627 390.039 817.627 390.192ZM817.6 389.587C817.6 389.45 817.587 389.307 817.587 389.168C817.587 389.305 817.6 389.451 817.6 389.587ZM817.573 389.017C817.573 388.879 817.56 388.747 817.56 388.61C817.56 388.742 817.573 388.885 817.573 389.017ZM817.547 388.448C817.533 388.316 817.533 388.177 817.52 388.045C817.533 388.183 817.533 388.311 817.547 388.448ZM817.52 387.884C817.507 387.745 817.507 387.62 817.493 387.482C817.507 387.614 817.507 387.752 817.52 387.884ZM817.493 387.323C817.48 387.179 817.48 387.048 817.467 386.904C817.467 387.042 817.48 387.187 817.493 387.323ZM817.453 386.767C817.453 386.616 817.44 386.467 817.44 386.316C817.44 386.47 817.453 386.612 817.453 386.767ZM817.4 385.654C817.373 385.27 817.347 384.888 817.333 384.504C817.347 384.888 817.373 385.271 817.4 385.654ZM817.293 383.855C817.28 383.699 817.267 383.548 817.267 383.394C817.267 383.546 817.28 383.702 817.293 383.855ZM817.253 383.261C817.24 383.117 817.24 382.984 817.227 382.84C817.24 382.977 817.24 383.125 817.253 383.261ZM817.213 382.68C817.2 382.541 817.2 382.42 817.187 382.283C817.2 382.414 817.2 382.548 817.213 382.68ZM817.107 381C817.093 380.867 817.08 380.707 817.067 380.56C817.08 380.707 817.093 380.853 817.107 381ZM817.067 380.454C817.053 380.28 817.04 380.107 817.027 379.947C817.04 380.12 817.053 380.28 817.067 380.454ZM816.8 376.92C816.787 376.8 816.787 376.68 816.773 376.547C816.787 376.667 816.8 376.8 816.8 376.92ZM816.667 375.254C816.653 375.134 816.64 374.987 816.64 374.867C816.653 375 816.653 375.134 816.667 375.254ZM816.573 374.147C816.56 373.987 816.547 373.827 816.533 373.68C816.547 373.84 816.56 373.987 816.573 374.147ZM816.36 371.733C816.347 371.613 816.347 371.494 816.333 371.387C816.347 371.507 816.347 371.613 816.36 371.733ZM815.987 367.854C815.987 367.76 815.973 367.667 815.96 367.587C815.973 367.68 815.987 367.76 815.987 367.854ZM815.933 367.307C815.933 367.28 815.933 367.28 815.933 367.254C815.933 367.267 815.933 367.293 815.933 367.307ZM815.68 364.84C815.667 364.773 815.653 364.707 815.653 364.64C815.667 364.707 815.667 364.76 815.68 364.84ZM815.493 363.2C815.493 363.16 815.48 363.107 815.48 363.067C815.48 363.12 815.493 363.16 815.493 363.2Z" fill="#FFF1E2"/>
<path d="M148.227 94.4268C148.227 94.4134 148.253 94.4001 148.267 94.3868C148.253 94.4001 148.24 94.4134 148.227 94.4268ZM148.493 94.2001C148.573 94.1334 148.667 94.0535 148.747 93.9868C148.653 94.0535 148.573 94.1334 148.493 94.2001ZM148.773 93.9601C174.213 72.9468 202.24 54.96 232.293 40.5467C228.2 42.5067 224.133 44.5467 220.12 46.64C194.64 59.92 170.747 75.8134 148.773 93.9601Z" fill="white"/>
<path d="M135.333 105.573C139.547 101.76 143.84 98.0532 148.227 94.4265C148.24 94.4132 148.253 94.3999 148.267 94.3866C148.347 94.3199 148.413 94.2665 148.493 94.1998C148.573 94.1332 148.653 94.0532 148.746 93.9866C148.76 93.9732 148.76 93.9732 148.773 93.9599C170.746 75.8132 194.64 59.9198 220.12 46.6398C189.347 62.6931 160.88 82.5465 135.333 105.573Z" fill="#FFF1E2"/>
<path d="M409.093 0.453606C381.667 0.453606 354.88 3.16027 329 8.32027C329.853 8.32027 330.733 8.32027 331.587 8.32027C546.96 8.32027 723.107 147.374 723.107 147.374C689.6 132.627 653.787 122.707 618.04 122.707C613.333 122.707 608.627 122.88 603.92 123.24C596.453 112.36 585.093 101.88 570.88 93.6802C554.64 84.2935 537.653 79.6269 523.2 79.6269C516.853 79.6269 510.987 80.5336 505.867 82.3203C462.76 54.4936 399.44 22.7069 329 8.32027C354.88 3.16027 381.667 0.453606 409.093 0.453606Z" fill="#FFD758"/>
<path d="M53.7626 206.84C75.4399 168.88 103 134.747 135.213 105.667C135.24 105.653 135.267 105.626 135.293 105.613C135.307 105.586 135.32 105.587 135.333 105.573C160.88 82.5465 189.347 62.6932 220.12 46.6399C224.133 44.5465 228.2 42.5065 232.293 40.5465C238.28 37.6798 244.347 34.9465 250.48 32.3732C252.693 31.4399 254.947 30.5065 257.187 29.5999C257.547 29.4532 257.907 29.3199 258.253 29.1732C280.907 20.1465 304.547 13.1333 329 8.31993C399.44 22.7066 462.76 54.4933 505.867 82.3199C505.8 82.3466 505.733 82.3732 505.653 82.3999C462.813 67.1732 416.693 58.8798 368.64 58.8798C341.227 58.8798 314.44 61.5865 288.547 66.7465C264.093 71.5598 240.453 78.5732 217.8 87.5999C215.2 88.6399 212.6 89.7199 210.027 90.7999C149 116.453 95.4666 156.547 53.7626 206.84Z" fill="#9DC348"/>
<path d="M728.8 154.347C726.933 152 725.027 149.68 723.107 147.373C725.04 149.68 726.933 152 728.8 154.347Z" fill="#FFD758"/>
<path d="M724.147 670.166C758.213 610.526 777.627 541.492 777.627 467.875C777.627 376.813 747.92 292.733 697.533 224.773C692.773 218.307 687.827 211.96 682.667 205.813C661.813 180.853 638.04 158.413 611.88 139.04C610.213 133.813 607.52 128.48 603.92 123.24C608.627 122.88 613.333 122.707 618.04 122.707C653.787 122.707 689.6 132.627 723.107 147.373C725.027 149.68 726.933 152 728.8 154.347C731.947 158.28 735 162.293 737.987 166.347C778.827 221.427 806.08 287.107 814.933 358.507C814.96 358.68 814.987 358.854 815 359.027C815.147 360.214 815.293 361.387 815.427 362.573C815.427 362.6 815.427 362.64 815.427 362.667C815.453 362.8 815.467 362.933 815.48 363.067C815.48 363.107 815.493 363.16 815.493 363.2C815.507 363.333 815.52 363.467 815.533 363.587C815.547 363.64 815.547 363.693 815.56 363.747C815.573 363.867 815.587 363.987 815.6 364.107C815.6 364.173 815.613 364.227 815.613 364.294C815.627 364.4 815.64 364.533 815.653 364.64C815.653 364.707 815.667 364.773 815.68 364.84C815.68 364.947 815.693 365.067 815.707 365.173C815.72 365.24 815.72 365.307 815.733 365.373C815.747 365.493 815.76 365.6 815.773 365.72C815.773 365.787 815.787 365.854 815.787 365.92C815.8 366.027 815.813 366.134 815.827 366.254C815.827 366.32 815.84 366.387 815.84 366.454C815.867 366.72 815.907 366.987 815.933 367.254C815.933 367.28 815.933 367.28 815.933 367.307C815.947 367.4 815.947 367.494 815.96 367.587C815.973 367.667 815.987 367.76 815.987 367.854C816 367.947 816.013 368.04 816.013 368.12C816.027 368.214 816.04 368.307 816.04 368.4C816.053 368.493 816.067 368.573 816.067 368.667C816.08 368.76 816.093 368.853 816.093 368.947C816.107 369.04 816.12 369.12 816.12 369.213C816.133 369.307 816.147 369.4 816.147 369.507C816.16 369.587 816.173 369.667 816.173 369.76C816.187 369.854 816.2 369.947 816.2 370.054C816.213 370.134 816.227 370.214 816.227 370.294C816.24 370.4 816.253 370.507 816.253 370.613C816.267 370.68 816.267 370.773 816.28 370.84C816.293 370.947 816.307 371.067 816.307 371.173C816.32 371.24 816.32 371.307 816.333 371.387C816.347 371.494 816.347 371.613 816.36 371.733C816.373 371.8 816.373 371.867 816.387 371.947C816.387 372.067 816.4 372.187 816.413 372.307C816.413 372.373 816.427 372.427 816.427 372.48C816.467 372.853 816.493 373.227 816.533 373.6C816.533 373.627 816.533 373.653 816.533 373.68C816.547 373.827 816.56 373.987 816.573 374.147C816.573 374.2 816.587 374.24 816.587 374.294C816.6 374.427 816.613 374.56 816.627 374.694C816.627 374.747 816.627 374.813 816.64 374.867C816.64 374.987 816.653 375.134 816.667 375.254C816.68 375.307 816.68 375.36 816.68 375.413C816.693 375.547 816.707 375.68 816.72 375.813C816.72 375.867 816.72 375.934 816.733 375.987C816.733 376.107 816.747 376.24 816.76 376.36C816.76 376.427 816.773 376.48 816.773 376.547C816.787 376.68 816.787 376.8 816.8 376.92C816.813 376.987 816.813 377.04 816.813 377.107C816.827 377.24 816.84 377.373 816.853 377.507C816.853 377.547 816.853 377.6 816.853 377.64C816.867 377.8 816.88 377.947 816.893 378.107C816.893 378.133 816.893 378.173 816.907 378.2C816.947 378.773 816.987 379.334 817.027 379.894C817.027 379.92 817.027 379.933 817.027 379.947C817.04 380.107 817.053 380.28 817.067 380.454C817.067 380.48 817.067 380.534 817.067 380.56C817.08 380.707 817.093 380.867 817.107 381C817.107 381.053 817.107 381.107 817.107 381.147C817.12 381.28 817.133 381.414 817.147 381.56C817.147 381.614 817.147 381.667 817.147 381.72C817.16 381.854 817.173 381.987 817.173 382.119C817.187 382.173 817.187 382.228 817.187 382.283C817.2 382.42 817.2 382.541 817.213 382.68C817.213 382.735 817.227 382.785 817.227 382.84C817.24 382.984 817.24 383.117 817.253 383.261C817.253 383.305 817.253 383.35 817.267 383.394C817.267 383.548 817.28 383.699 817.293 383.855C817.293 383.887 817.293 383.916 817.293 383.949C817.307 384.135 817.32 384.313 817.333 384.5V384.504C817.347 384.888 817.373 385.27 817.4 385.654C817.4 385.66 817.4 385.661 817.4 385.667C817.413 385.847 817.413 386.028 817.427 386.208C817.427 386.241 817.427 386.284 817.44 386.316C817.44 386.467 817.453 386.616 817.453 386.767C817.467 386.809 817.467 386.86 817.467 386.904C817.48 387.048 817.48 387.179 817.493 387.323C817.493 387.379 817.493 387.427 817.493 387.482C817.507 387.62 817.507 387.745 817.52 387.884C817.52 387.939 817.52 387.991 817.52 388.045C817.533 388.177 817.533 388.316 817.547 388.448C817.547 388.503 817.547 388.555 817.56 388.61C817.56 388.747 817.573 388.879 817.573 389.017C817.573 389.072 817.573 389.113 817.587 389.168C817.587 389.307 817.6 389.45 817.6 389.587C817.6 389.638 817.613 389.683 817.613 389.732C817.613 389.89 817.627 390.036 817.627 390.192C817.627 390.22 817.64 390.26 817.64 390.287C817.667 390.854 817.68 391.419 817.707 391.985C817.707 392.023 817.707 392.059 817.72 392.098C817.72 392.248 817.733 392.395 817.733 392.545C817.733 392.601 817.733 392.643 817.733 392.698C817.747 392.831 817.747 392.964 817.76 393.098C817.76 393.158 817.76 393.22 817.76 393.282C817.773 393.408 817.773 393.536 817.773 393.663C817.773 393.723 817.787 393.784 817.787 393.844C817.787 393.971 817.787 394.096 817.8 394.223C817.8 394.284 817.8 394.348 817.8 394.408C817.813 394.535 817.813 394.666 817.813 394.792C817.827 394.852 817.827 394.911 817.827 394.972C817.827 395.099 817.827 395.223 817.84 395.349C817.84 395.409 817.84 395.476 817.84 395.536C817.853 395.669 817.853 395.796 817.853 395.929C817.853 395.984 817.867 396.04 817.867 396.096C817.867 396.252 817.867 396.407 817.88 396.564C817.88 396.598 817.88 396.616 817.88 396.649C817.893 397.024 817.907 397.407 817.907 397.782C817.92 397.826 817.92 397.875 817.92 397.919C817.92 398.057 817.92 398.201 817.933 398.34C817.933 398.396 817.933 398.461 817.933 398.517C817.933 398.644 817.933 398.775 817.947 398.901C817.947 398.963 817.947 399.038 817.947 399.098C817.947 399.214 817.96 399.344 817.96 399.46C817.96 399.531 817.96 399.597 817.96 399.669C817.96 399.784 817.96 399.9 817.973 400.016C817.973 400.088 817.973 400.169 817.973 400.241C817.973 400.351 817.973 400.471 817.987 400.58C817.987 400.652 817.987 400.724 817.987 400.796C817.987 400.917 817.987 401.028 817.987 401.149C818 401.221 818 401.288 818 401.359C818 401.48 818 401.6 818 401.722C818 401.782 818.013 401.857 818.013 401.919C818.013 402.045 818.013 402.175 818.013 402.301C818.013 402.357 818.013 402.426 818.013 402.482C818.027 402.651 818.027 402.818 818.027 402.987C818.027 403.004 818.027 403.019 818.027 403.035C818.027 403.229 818.027 403.411 818.04 403.604C818.04 403.638 818.04 403.675 818.04 403.708C818.04 403.86 818.04 404.012 818.04 404.164C818.04 404.226 818.04 404.292 818.04 404.354C818.04 404.475 818.053 404.597 818.053 404.719C818.053 404.791 818.053 404.869 818.053 404.941C818.053 405.057 818.053 405.169 818.053 405.285C818.053 405.357 818.053 405.436 818.053 405.508C818.053 405.617 818.053 405.732 818.067 405.841C818.067 405.919 818.067 405.999 818.067 406.077C818.067 406.187 818.067 406.299 818.067 406.408C818.067 406.48 818.067 406.567 818.067 406.639C818.067 406.748 818.067 406.857 818.067 406.967C818.067 407.044 818.067 407.127 818.067 407.204C818.067 407.314 818.067 407.425 818.067 407.535C818.067 407.612 818.067 407.689 818.067 407.767C818.067 407.876 818.067 407.992 818.08 408.101C818.08 408.18 818.08 408.251 818.08 408.328C818.08 408.449 818.08 408.581 818.08 408.703C818.08 408.764 818.08 408.826 818.08 408.887C818.08 409.076 818.08 409.259 818.08 409.447C818.08 409.629 818.08 409.801 818.08 409.983C818.08 410.004 818.08 410.031 818.08 410.051C818.08 410.22 818.08 410.383 818.08 410.552C818.08 410.58 818.08 410.612 818.08 410.639C818.08 410.647 818.08 410.652 818.08 410.659C818.08 410.823 818.067 410.991 818.067 411.155C818.067 411.182 818.067 411.215 818.067 411.241C818.067 411.411 818.067 411.586 818.067 411.755C818.067 411.762 818.067 411.76 818.067 411.767C818.067 411.78 818.067 411.792 818.067 411.805C818.067 411.969 818.067 412.136 818.067 412.3C818.067 412.313 818.067 412.325 818.067 412.34C818.067 412.347 818.067 412.364 818.067 412.372C818.067 412.535 818.067 412.699 818.067 412.861C818.067 412.903 818.067 412.943 818.067 412.984C818.053 413.141 818.053 413.3 818.053 413.457C818.053 413.499 818.053 413.539 818.053 413.58C818.053 413.737 818.053 413.898 818.053 414.055C818.053 414.095 818.053 414.127 818.053 414.168C818.053 414.307 818.04 414.454 818.04 414.592C818.04 414.626 818.04 414.659 818.04 414.692C818.04 414.85 818.04 414.996 818.04 415.154C818.04 415.208 818.04 415.253 818.04 415.308C818.027 415.453 818.027 415.599 818.027 415.743C818.027 415.798 818.027 415.863 818.027 415.917C818.027 416.061 818.027 416.196 818.013 416.341C818.013 416.403 818.013 416.466 818.013 416.527C818.013 416.635 818.013 416.741 818.013 416.849C818.013 416.932 818.013 417.023 818 417.105C818 417.213 818 417.32 818 417.428C818 417.503 818 417.569 818 417.644C817.987 417.764 817.987 417.897 817.987 418.017C817.987 418.099 817.987 418.184 817.987 418.266C817.987 418.363 817.973 418.449 817.973 418.545C817.973 418.661 817.973 418.771 817.973 418.887C817.973 418.947 817.96 419.019 817.96 419.079C817.96 419.221 817.96 419.361 817.96 419.505C817.947 419.565 817.947 419.619 817.947 419.68C817.947 419.836 817.947 419.995 817.933 420.151C817.933 420.193 817.933 420.241 817.933 420.283C817.92 420.603 817.92 420.916 817.907 421.236C817.907 421.243 817.907 421.254 817.907 421.26C816.507 470.432 806.44 517.447 789.16 560.799C789.107 560.915 789.053 561.038 789.013 561.154C789 561.178 788.987 561.211 788.973 561.235C773.067 601.017 751.067 637.71 724.147 670.166Z" fill="#9DC348"/>
<path d="M611.88 139.04C579.76 115.24 544.027 96.0401 505.653 82.4001C505.733 82.3734 505.8 82.3468 505.867 82.3201C510.987 80.5335 516.853 79.6268 523.2 79.6268C537.653 79.6268 554.64 84.2933 570.88 93.68C585.093 101.88 596.453 112.36 603.92 123.24C607.52 128.48 610.213 133.813 611.88 139.04Z" fill="#518B81"/>
<path d="M613.24 377.053C591.227 377.053 568.36 360.533 545.547 339.773C509.747 307.213 487.613 276.56 520.187 240.76C537.48 221.747 561.213 212.093 585.04 212.093C593.173 212.093 601.32 213.213 609.213 215.48C624.253 246.12 643.68 294.44 653.48 354.453C652.32 355.893 651.12 357.32 649.853 358.706C638.027 371.706 625.773 377.067 613.24 377.053Z" fill="#FFF1E2"/>
<path d="M653.48 354.453C643.68 294.44 624.253 246.12 609.213 215.48C621.76 219.08 633.693 225.533 644 234.907C678.4 266.213 682.16 318.627 653.48 354.453Z" fill="#9DC348"/>
<path d="M723.107 147.374C723.107 147.374 546.96 8.32027 331.587 8.32027C330.733 8.32027 329.853 8.32027 329 8.32027C354.88 3.16027 381.667 0.453606 409.093 0.453606C535.24 0.453606 648.093 57.5869 723.107 147.374Z" fill="#FFE07D"/>
</svg>
