<?xml version="1.0" encoding="UTF-8" standalone="no"?>
<!-- Created with Inkscape (http://www.inkscape.org/) -->

<svg
   version="1.1"
   id="svg2"
   width="388.22668"
   height="524.18665"
   viewBox="0 0 388.22668 524.18665"
   sodipodi:docname="5328393_2782738.eps"
   xmlns:inkscape="http://www.inkscape.org/namespaces/inkscape"
   xmlns:sodipodi="http://sodipodi.sourceforge.net/DTD/sodipodi-0.dtd"
   xmlns="http://www.w3.org/2000/svg"
   xmlns:svg="http://www.w3.org/2000/svg">
  <defs
     id="defs6" />
  <sodipodi:namedview
     id="namedview4"
     pagecolor="#ffffff"
     bordercolor="#000000"
     borderopacity="0.25"
     inkscape:showpageshadow="2"
     inkscape:pageopacity="0.0"
     inkscape:pagecheckerboard="0"
     inkscape:deskcolor="#d1d1d1" />
  <g
     id="g8"
     inkscape:groupmode="layer"
     inkscape:label="ink_ext_XXXXXX"
     transform="matrix(1.3333333,0,0,-1.3333333,0,524.18667)">
    <g
       id="g10"
       transform="scale(0.1)">
      <path
         d="m 2748.14,1065.81 c 0,-156.31 -517.85,-283.021 -1156.65,-283.021 -638.802,0 -1156.654,126.711 -1156.654,283.021 0,156.29 517.852,283 1156.654,283 638.8,0 1156.65,-126.71 1156.65,-283"
         style="fill:#e2ecf0;fill-opacity:1;fill-rule:nonzero;stroke:none"
         id="path12" />
      <path
         d="m 2452.41,1102.72 c 0,-123.24 -385.45,-223.15 -860.92,-223.15 -475.48,0 -860.924,99.91 -860.924,223.15 0,123.24 385.444,223.14 860.924,223.14 475.47,0 860.92,-99.9 860.92,-223.14"
         style="fill:#c8d7de;fill-opacity:1;fill-rule:nonzero;stroke:none"
         id="path14" />
      <path
         d="m 1321.81,3683.52 c 0,0 -104.53,100.63 -130.14,183.87 0,0 -8.68,-18.28 0,-91.94 0,0 -170.46,40.71 -206.893,155.97 0,0 -66.941,-101.51 -30.023,-179.29 0,0 -51.227,-23.79 -128.063,55.34 0,0 2.122,-63.6 25.614,-123.95 0,0 -44.821,7.61 -96.047,18.9 0,0 25.461,-82.61 111.976,-83.68 l 453.576,64.78"
         style="fill:#ffdf00;fill-opacity:1;fill-rule:nonzero;stroke:none"
         id="path16" />
      <path
         d="m 2807.68,2643.08 c -21.06,30.87 -69.79,19.26 -74.18,-17.86 -33.26,-281.44 -249.6,-454.71 -651.88,-473.25 -449.05,-20.7 -560.21,124.2 -572.8,300.15 -5.46,76.32 20.74,154.22 52.15,217.98 19.67,39.91 44.14,77.21 70.49,113.06 6.89,9.35 13.49,18.92 19.86,28.66 l 0.63,0.75 -0.13,0.02 c 65.9,101.15 102.08,223.45 95.68,354.6 -14.87,304.96 -262.83,551.99 -567.85,565.67 -341.662,15.32 -623.474,-257.14 -623.474,-595.42 0,-65.8 10.82,-129.04 30.512,-188.23 l -0.157,0.02 0.719,-1.68 c 8.191,-24.38 17.809,-48.1 28.949,-70.95 C 806.262,2373.68 472.453,2339.23 408.938,1858.31 336.488,1309.77 860.277,957.879 1561.3,957.879 c 627.84,0 1021.13,227.691 1186.73,558.881 257.88,515.75 157.46,982.99 59.65,1126.32"
         style="fill:#ffdf00;fill-opacity:1;fill-rule:nonzero;stroke:none"
         id="path18" />
      <path
         d="m 586.688,2949.21 -0.157,0.02 0.719,-1.68 c 8.191,-24.38 17.809,-48.1 28.949,-70.95 14.028,-37.12 25.137,-71.63 33.774,-104.02 16.093,-1.93 26.632,-3.13 27.871,-3.13 6.394,0 327.646,251.57 327.646,251.57 -333.138,-91.61 -291.408,168.34 -287.146,286.49 4.199,116.37 -100.969,87.34 -104.125,86.45 -37.121,-77.71 -58.043,-164.65 -58.043,-256.51 0,-65.81 10.82,-129.05 30.512,-188.24"
         style="fill:#edd000;fill-opacity:1;fill-rule:nonzero;stroke:none"
         id="path20" />
      <path
         d="m 986.918,3005.14 c -87.055,-42.46 -169.867,-92.36 -269.934,-96.9 -39.285,-1.79 -78.738,1.23 -117.91,7.41 5.285,-13.24 10.91,-26.3 17.125,-39.05 118.418,-313.35 33.473,-444.85 -62.758,-615.78 276.879,312.03 114.555,425.56 291.567,503.38 177.012,77.82 215.542,228.1 215.542,228.1 l -73.632,12.84"
         style="fill:#edd000;fill-opacity:1;fill-rule:nonzero;stroke:none"
         id="path22" />
      <path
         d="m 2788.22,2419.89 c -2.03,8.03 -9.41,13.95 -17.67,13.36 -18.29,-1.32 -35.54,-14.14 -38.08,-35.4 -2.3,-19.17 -5.55,-37.79 -9.57,-55.95 -0.27,-1.26 -0.4,-2.53 -0.38,-3.82 3.37,-168.16 -30.94,-374.4 -140.5,-590.89 -142.54,-281.66 -481.09,-475.3 -1021.55,-475.3 -603.454,0 -1054.337,299.27 -991.974,765.79 l 0.18,1.31 c 2.637,19.52 -23.352,28.5 -33.129,11.41 -11.168,-19.53 -22.578,-39.49 -33.934,-60.22 -0.668,-1.23 -1.211,-2.53 -1.59,-3.88 -11.097,-38.85 -20.328,-81.19 -26.625,-128.32 -67.89,-507.81 422.911,-833.57 1079.782,-833.57 588.29,0 956.82,210.78 1111.98,517.38 177.48,350.67 173.81,676.93 123.06,878.1"
         style="fill:#edd000;fill-opacity:1;fill-rule:nonzero;stroke:none"
         id="path24" />
      <path
         d="m 2619.08,1669.29 c -149.54,-283.38 -504.7,-478.21 -1071.65,-478.21 -511.28,0 -918.086,196.43 -1021.211,519.28 -4.02,12.57 -23.188,8.81 -21.715,-4.28 43.953,-390.24 480.152,-632.96 1042.926,-632.96 566.95,0 922.11,198.71 1071.65,487.74 67.53,130.53 107.82,257.45 128.86,374.95 2.45,13.65 -18.15,18.09 -21.74,4.69 -23.36,-87.08 -58.05,-178.21 -107.12,-271.21"
         style="fill:#e3c700;fill-opacity:1;fill-rule:nonzero;stroke:none"
         id="path26" />
      <path
         d="m 1547.81,3188.28 c -54.95,0 -122.34,71.82 -183.99,168.69 -74.23,116.65 -112.02,225.45 -52.86,263.09 13.32,8.48 30.43,12.63 49.79,12.63 66.58,0 159.78,-49.03 217.29,-139.4 74.22,-116.65 60.87,-258 1.71,-295.64 -10.02,-6.38 -20.72,-9.37 -31.94,-9.37 m -147.56,391.38 c -11.47,0 -21.62,-2.46 -29.52,-7.48 -35.07,-22.32 -12.66,-86.83 31.34,-155.98 36.55,-57.44 76.51,-100.02 109.09,-100.02 6.65,0 12.99,1.77 18.94,5.56 35.07,22.31 42.98,106.12 -1.02,175.28 -34.1,53.58 -89.35,82.64 -128.83,82.64"
         style="fill:#ffe94d;fill-opacity:1;fill-rule:nonzero;stroke:none"
         id="path28" />
      <path
         d="m 1511.16,3316.18 c -32.58,0 -72.54,42.58 -109.09,100.02 -44,69.15 -66.41,133.66 -31.34,155.98 7.9,5.02 18.05,7.48 29.52,7.48 39.48,0 94.73,-29.06 128.83,-82.64 44,-69.16 36.09,-152.97 1.02,-175.28 -5.95,-3.79 -12.29,-5.56 -18.94,-5.56"
         style="fill:#fff083;fill-opacity:1;fill-rule:nonzero;stroke:none"
         id="path30" />
      <path
         d="m 1945.84,2151.08 c -336.27,12.5 -425.81,144.41 -437.02,301.04 -5.46,76.32 20.74,154.22 52.16,217.98 19.66,39.91 44.13,77.21 70.48,113.06 6.89,9.35 13.49,18.92 19.86,28.66 l 0.63,0.75 -0.14,0.02 c 65.91,101.15 102.09,223.45 95.69,354.6 -0.33,6.91 -0.93,13.76 -1.51,20.61 -1.13,-9.98 -34.06,-281.48 -267.31,-404.96 -237.62,-125.81 -131.1,-634.61 465.63,-631.82 l 1.53,0.06"
         style="fill:#edd000;fill-opacity:1;fill-rule:nonzero;stroke:none"
         id="path32" />
      <path
         d="m 104.438,3210.66 c 0,0 -37.0825,-10.3 -9.9146,-85.34 27.1756,-75.04 349.5276,-203.79 546.0116,-235.21 302.52,-48.37 426.655,54.96 419.595,99.32 -7.06,44.36 -275.657,-44.32 -440.548,0.02 -164.883,44.34 -515.144,221.21 -515.144,221.21"
         style="fill:#cc4a00;fill-opacity:1;fill-rule:nonzero;stroke:none"
         id="path34" />
      <path
         d="m 625.566,3372.09 c 81.77,-35.41 8.704,-226.88 115.844,-327.8 107.137,-100.91 171.246,0 284.98,-26.91 113.73,-26.91 -66.913,-156.61 -420.913,-71.58 -354,85.04 -546.7778,219.59 -593.6137,333.95 -46.836,114.37 48.4492,84.33 225.3867,13.46 285.535,-114.37 299.391,117.4 388.316,78.88"
         style="fill:#ff5c00;fill-opacity:1;fill-rule:nonzero;stroke:none"
         id="path36" />
      <path
         d="m 620.125,3346.73 c -83.812,36.3 -96.871,-182.13 -365.977,-74.34 -156.9957,62.88 -245.73784,91.62 -218.7652,4.83 22.5977,7.37 54.7383,10.09 92.5152,-8.96 74.829,-37.73 159.598,-107.53 324.661,-97.56 108.468,6.55 171.738,93.2 180.808,167.69 -3.863,3.35 -8.23,6.17 -13.242,8.34"
         style="fill:#ff6e1c;fill-opacity:1;fill-rule:nonzero;stroke:none"
         id="path38" />
      <path
         d="m 598.816,3248.86 c -10.453,-31.25 -39.089,-49.58 -45.261,-47.43 -6.168,2.14 12.472,23.94 22.922,55.19 10.457,31.26 6.777,60.82 12.945,58.67 6.168,-2.14 19.848,-35.18 9.394,-66.43"
         style="fill:#b34100;fill-opacity:1;fill-rule:nonzero;stroke:none"
         id="path40" />
      <path
         d="m 1173.38,3269.46 c -21.16,-86.03 -96.03,-141.58 -167.23,-124.07 -71.205,17.52 -111.767,101.46 -90.603,187.5 21.16,86.03 96.033,141.58 167.233,124.06 71.2,-17.51 111.76,-101.45 90.6,-187.49"
         style="fill:#ffffff;fill-opacity:1;fill-rule:nonzero;stroke:none"
         id="path42" />
      <path
         d="m 1064.28,3381.75 c -43.01,10.58 -86.76,-16.92 -97.706,-61.42 -8.402,-34.16 5.02,-68.35 31.153,-87.21 -2.352,6.61 -2.875,14.01 -1.055,21.4 4.818,19.57 24.048,31.66 42.958,27.01 18.91,-4.65 30.34,-24.28 25.53,-43.85 -1.82,-7.4 -5.71,-13.72 -10.86,-18.48 31.9,4.59 59.65,28.65 68.05,62.82 10.95,44.5 -15.05,89.15 -58.07,99.73"
         style="fill:#303030;fill-opacity:1;fill-rule:nonzero;stroke:none"
         id="path44" />
      <path
         d="m 1061.88,3334.79 c 0,-15.57 -12.62,-28.19 -28.19,-28.19 -15.58,0 -28.2,12.62 -28.2,28.19 0,15.57 12.62,28.2 28.2,28.2 15.57,0 28.19,-12.63 28.19,-28.2"
         style="fill:#ffffff;fill-opacity:1;fill-rule:nonzero;stroke:none"
         id="path46" />
      <path
         d="m 1085.35,3278.28 c -8.07,0 -14.61,6.54 -14.61,14.61 0,8.07 6.54,14.62 14.61,14.62 8.08,0 14.62,-6.55 14.62,-14.62 0,-8.07 -6.54,-14.61 -14.62,-14.61"
         style="fill:#989898;fill-opacity:1;fill-rule:nonzero;stroke:none"
         id="path48" />
      <path
         d="m 925.293,1837.68 c 87.657,324.77 364.817,394.5 634.027,271.76 232.2,-105.86 613.86,-164.42 901.96,-42.08 37,15.72 69.6,-31.75 45.39,-66.41 -45.89,-65.7 -107.71,-140.08 -178.35,-188.27 l 0.02,0.01 c 43.02,13.76 69.9,-49.33 33.04,-77.41 -27.1,-20.66 -57.83,-36.86 -91.09,-42.36 0,0 0.67,-0.06 1.95,-0.17 39.47,-3.28 50.19,-61.57 15,-81.71 -32.97,-18.87 -70.6,-34.31 -108,-36.81 0,0 1.73,-0.75 5.12,-2.03 33.53,-12.57 36.29,-63.91 4.06,-80.3 -74.87,-38.09 -209.7,-83.89 -440.97,-101.59 -425.04,-32.53 -940.532,8.81 -822.157,447.37"
         style="fill:#edd000;fill-opacity:1;fill-rule:nonzero;stroke:none"
         id="path50" />
      <path
         d="m 988.656,1860.6 c 79.694,301.52 331.344,366.36 575.704,252.52 210.77,-98.19 557.24,-152.41 818.83,-38.74 33.6,14.61 63.18,-29.45 41.18,-61.63 -41.68,-61.01 -97.83,-130.08 -161.98,-174.85 l 0.02,0.01 c 39.05,12.8 63.45,-45.76 29.96,-71.85 -24.61,-19.18 -52.51,-34.24 -82.7,-39.36 0,0 0.6,-0.05 1.75,-0.15 35.84,-3.04 45.55,-57.14 13.6,-75.85 -29.94,-17.53 -64.1,-31.88 -98.06,-34.21 0,0 1.56,-0.7 4.65,-1.89 30.44,-11.65 32.92,-59.31 3.65,-74.55 -67.98,-35.38 -190.4,-77.95 -400.37,-94.46 -385.89,-30.36 -853.863,7.83 -746.234,415.01"
         style="fill:#ffdf00;fill-opacity:1;fill-rule:nonzero;stroke:none"
         id="path52" />
      <path
         d="m 1655.64,1625.84 c -9.06,0 -18.19,0.09 -27.32,0.25 -232.59,4.15 -444.32,60.63 -605.94,150.67 1.99,21.84 6.2,45.08 12.99,69.92 50.99,186.66 178.78,271.26 327.72,271.26 65.03,0 134.12,-16.15 202.57,-46.97 117.38,-52.84 280.39,-91.43 444.19,-91.43 107.29,0 214.93,16.56 310.28,56.51 4.2,1.76 8.32,2.56 12.26,2.56 25.21,0 43.23,-32.66 25.73,-57.4 -38.38,-54.24 -90.06,-115.65 -149.15,-155.43 l 0.02,0.01 c 3.46,1.09 6.8,1.59 9.98,1.59 29.83,0 45.53,-44.57 17.67,-65.52 -22.67,-17.05 -48.37,-30.43 -76.19,-34.96 0,0 0.56,-0.05 1.63,-0.14 3.82,-0.32 7.27,-1.3 10.43,-2.7 -146.98,-62.08 -324.94,-98.22 -516.87,-98.22 m -271.88,435.95 c -75.23,0 -145.22,-19.22 -200.39,-61.22 -23.79,-18.1 -21.13,-50.26 4.66,-66.98 143.88,-93.28 327.73,-146.98 520.49,-146.99 3.82,0 7.61,0.02 11.43,0.06 174.13,1.94 331.6,47.61 453.94,120.38 5.41,6.09 10.64,12.15 15.49,18.07 12.37,15.09 2.15,36.39 -14.29,36.39 -2.24,0 -4.59,-0.39 -7.02,-1.25 -54.85,-19.39 -117.79,-27.82 -183.36,-27.82 -131.15,0 -272.89,33.71 -381.84,80.89 -72.31,31.32 -148.05,48.47 -219.11,48.47"
         style="fill:#ffe94d;fill-opacity:1;fill-rule:nonzero;stroke:none"
         id="path54" />
      <path
         d="m 1708.52,1786.6 c -192.76,0.01 -376.61,53.71 -520.49,146.99 -25.79,16.72 -28.45,48.88 -4.66,66.98 55.17,42 125.16,61.22 200.39,61.22 71.06,0 146.8,-17.15 219.11,-48.47 108.95,-47.18 250.69,-80.89 381.84,-80.89 65.57,0 128.51,8.43 183.36,27.82 2.43,0.86 4.78,1.25 7.02,1.25 16.44,0 26.66,-21.3 14.29,-36.39 -4.85,-5.92 -10.08,-11.98 -15.49,-18.07 -122.34,-72.77 -279.81,-118.44 -453.94,-120.38 -3.82,-0.04 -7.61,-0.06 -11.43,-0.06"
         style="fill:#ffed71;fill-opacity:1;fill-rule:nonzero;stroke:none"
         id="path56" />
    </g>
  </g>
</svg>
