<svg width="389" height="405" viewBox="0 0 389 405" fill="none" xmlns="http://www.w3.org/2000/svg">
<g filter="url(#filter0_d_426_1946)">
<path d="M176.241 33.0507C176.241 33.0507 162.304 19.6334 158.889 8.53473C158.889 8.53473 157.732 10.9721 158.889 20.7934C158.889 20.7934 136.161 15.3654 131.304 -0.00261041C131.304 -0.00261041 122.378 13.5321 127.301 23.9027C127.301 23.9027 120.47 27.0747 110.226 16.5241C110.226 16.5241 110.508 25.004 113.641 33.0507C113.641 33.0507 107.665 32.0361 100.834 30.5307C100.834 30.5307 104.229 41.5454 115.765 41.688L176.241 33.0507Z" fill="#FFDF00"/>
<path d="M374.357 171.776C371.549 167.66 365.052 169.208 364.467 174.157C360.032 211.683 331.187 234.785 277.549 237.257C217.676 240.017 202.855 220.697 201.176 197.237C200.448 187.061 203.941 176.675 208.129 168.173C210.752 162.852 214.015 157.879 217.528 153.099C218.447 151.852 219.327 150.576 220.176 149.277L220.26 149.177L220.243 149.175C229.029 135.688 233.853 119.381 233 101.895C231.017 61.2333 197.956 28.296 157.287 26.472C111.732 24.4293 74.1569 60.7573 74.1569 105.861C74.1569 114.635 75.5995 123.067 78.2251 130.959L78.2042 130.956L78.3001 131.18C79.3922 134.431 80.6746 137.593 82.1599 140.64C107.502 207.696 62.9938 212.289 54.5251 276.412C44.8651 349.551 114.704 396.469 208.173 396.469C291.885 396.469 344.324 366.111 366.404 321.952C400.788 253.185 387.399 190.887 374.357 171.776Z" fill="#FFDF00"/>
<path d="M78.225 130.959L78.2041 130.956L78.2999 131.18C79.3921 134.431 80.6745 137.593 82.1598 140.64C84.0302 145.589 85.5114 150.191 86.663 154.509C88.8087 154.767 90.2139 154.927 90.3791 154.927C91.2317 154.927 134.065 121.384 134.065 121.384C89.6469 133.599 95.2109 98.9387 95.7791 83.1853C96.339 67.6693 82.3166 71.54 81.8958 71.6587C76.9463 82.02 74.1567 93.612 74.1567 105.86C74.1567 114.635 75.5994 123.067 78.225 130.959Z" fill="#EDD000"/>
<path d="M131.589 123.501C119.982 129.163 108.94 135.816 95.598 136.421C90.36 136.66 85.0996 136.257 79.8766 135.433C80.5813 137.199 81.3313 138.94 82.16 140.64C97.949 182.42 86.623 199.953 73.7922 222.744C110.709 181.14 89.0662 166.003 112.668 155.627C136.269 145.251 141.407 125.213 141.407 125.213L131.589 123.501Z" fill="#EDD000"/>
<path d="M371.763 201.535C371.492 200.464 370.508 199.675 369.407 199.753C366.968 199.929 364.668 201.639 364.329 204.473C364.023 207.029 363.589 209.512 363.053 211.933C363.017 212.101 363 212.271 363.003 212.443C363.452 234.864 358.877 262.363 344.269 291.228C325.264 328.783 280.124 354.601 208.063 354.601C127.602 354.601 67.4845 314.699 75.7996 252.496L75.8236 252.321C76.1752 249.719 72.71 248.521 71.4064 250.8C69.9173 253.404 68.396 256.065 66.8818 258.829C66.7928 258.993 66.7204 259.167 66.6698 259.347C65.1902 264.527 63.9594 270.172 63.1198 276.456C54.0678 344.164 119.508 387.599 207.091 387.599C285.529 387.599 334.667 359.495 355.355 318.615C379.019 271.859 378.529 228.357 371.763 201.535Z" fill="#EDD000"/>
<path d="M349.211 301.615C329.272 339.399 281.917 365.376 206.324 365.376C138.153 365.376 83.9127 339.185 70.1627 296.139C69.6267 294.463 67.0709 294.964 67.2673 296.709C73.1277 348.741 131.288 381.104 206.324 381.104C281.917 381.104 329.272 354.609 349.211 316.072C358.215 298.668 363.587 281.745 366.392 266.079C366.719 264.259 363.972 263.667 363.493 265.453C360.379 277.064 355.753 289.215 349.211 301.615Z" fill="#E3C700"/>
<path d="M206.375 99.0827C199.048 99.0827 190.063 89.5067 181.843 76.5907C171.945 61.0374 166.907 46.5307 174.795 41.512C176.571 40.3814 178.852 39.8281 181.433 39.8281C190.311 39.8281 202.737 46.3654 210.405 58.4147C220.301 73.968 218.521 92.8147 210.633 97.8334C209.297 98.6841 207.871 99.0827 206.375 99.0827ZM186.7 46.8987C185.171 46.8987 183.817 47.2267 182.764 47.8961C178.088 50.8721 181.076 59.4734 186.943 68.6934C191.816 76.352 197.144 82.0294 201.488 82.0294C202.375 82.0294 203.22 81.7934 204.013 81.288C208.689 78.3134 209.744 67.1387 203.877 57.9174C199.331 50.7734 191.964 46.8987 186.7 46.8987Z" fill="#FFE94D"/>
<path d="M201.488 82.0294C197.144 82.0294 191.816 76.352 186.943 68.6934C181.076 59.4734 178.088 50.872 182.764 47.896C183.817 47.2267 185.171 46.8987 186.7 46.8987C191.964 46.8987 199.331 50.7733 203.877 57.9173C209.744 67.1387 208.689 78.3134 204.013 81.288C203.22 81.7934 202.375 82.0294 201.488 82.0294Z" fill="#FFF083"/>
<path d="M259.445 237.376C214.609 235.709 202.671 218.121 201.176 197.237C200.448 187.061 203.941 176.675 208.131 168.173C210.752 162.852 214.015 157.879 217.528 153.099C218.447 151.852 219.327 150.576 220.176 149.277L220.26 149.177L220.241 149.175C229.029 135.688 233.853 119.381 233 101.895C232.956 100.973 232.876 100.06 232.799 99.1467C232.648 100.477 228.257 136.677 197.157 153.141C165.475 169.916 179.677 237.756 259.241 237.384L259.445 237.376Z" fill="#EDD000"/>
<path d="M13.9251 96.0987C13.9251 96.0987 8.98081 97.472 12.6032 107.477C16.2266 117.483 59.2069 134.649 85.4047 138.839C125.741 145.288 142.292 131.511 141.351 125.596C140.409 119.681 104.596 131.505 82.611 125.593C60.6266 119.681 13.9251 96.0987 13.9251 96.0987Z" fill="#CC4A00"/>
<path d="M83.4088 74.5747C94.3115 79.296 84.5694 104.825 98.8547 118.281C113.14 131.736 121.688 118.281 136.852 121.869C152.016 125.457 127.93 142.751 80.7303 131.413C33.5303 120.075 7.82662 102.135 1.58183 86.8867C-4.66297 71.6374 8.04173 75.6427 31.6334 85.0921C69.7047 100.341 71.5522 69.4387 83.4088 74.5747Z" fill="#FF5C00"/>
<path d="M82.6834 77.9561C71.5084 73.1161 69.7672 102.24 33.8864 87.8681C12.9537 79.4841 1.12138 75.6521 4.71773 87.2241C7.73076 86.2414 12.0162 85.8787 17.0531 88.4187C27.0303 93.4494 38.3328 102.756 60.3412 101.427C74.8036 100.553 83.2396 89.0001 84.449 79.0681C83.9339 78.6214 83.3516 78.2454 82.6834 77.9561Z" fill="#FF6E1C"/>
<path d="M79.8422 91.0054C78.4484 95.172 74.6303 97.6161 73.8074 97.3294C72.985 97.0441 75.4703 94.1374 76.8636 89.9707C78.2579 85.8027 77.7672 81.8614 78.5896 82.148C79.412 82.4334 81.236 86.8387 79.8422 91.0054Z" fill="#B34100"/>
<path d="M156.451 88.2587C153.629 99.7294 143.647 107.136 134.153 104.801C124.659 102.465 119.251 91.2734 122.073 79.8014C124.894 68.3307 134.877 60.9241 144.371 63.2601C153.864 65.5947 159.272 76.7867 156.451 88.2587Z" fill="white"/>
<path d="M141.904 73.2867C136.169 71.876 130.336 75.5427 128.877 81.476C127.756 86.0307 129.546 90.5893 133.03 93.104C132.717 92.2227 132.647 91.236 132.89 90.2507C133.532 87.6413 136.096 86.0293 138.617 86.6493C141.139 87.2693 142.663 89.8867 142.021 92.496C141.779 93.4827 141.26 94.3254 140.573 94.96C144.827 94.348 148.527 91.14 149.647 86.584C151.107 80.6507 147.64 74.6973 141.904 73.2867Z" fill="#303030"/>
<path d="M141.584 79.548C141.584 81.624 139.901 83.3067 137.825 83.3067C135.748 83.3067 134.065 81.624 134.065 79.548C134.065 77.472 135.748 75.788 137.825 75.788C139.901 75.788 141.584 77.472 141.584 79.548Z" fill="white"/>
<path d="M144.713 87.0827C143.637 87.0827 142.765 86.2107 142.765 85.1347C142.765 84.0587 143.637 83.1854 144.713 83.1854C145.791 83.1854 146.663 84.0587 146.663 85.1347C146.663 86.2107 145.791 87.0827 144.713 87.0827Z" fill="#989898"/>
<path d="M123.373 279.163C135.06 235.86 172.015 226.563 207.909 242.928C238.869 257.043 289.757 264.851 328.171 248.539C333.104 246.443 337.451 252.772 334.223 257.393C328.104 266.153 319.861 276.071 310.443 282.496L310.445 282.495C316.181 280.66 319.765 289.072 314.851 292.816C311.237 295.571 307.14 297.731 302.705 298.464C302.705 298.464 302.795 298.472 302.965 298.487C308.228 298.924 309.657 306.696 304.965 309.381C300.569 311.897 295.552 313.956 290.565 314.289C290.565 314.289 290.796 314.389 291.248 314.56C295.719 316.236 296.087 323.081 291.789 325.267C281.807 330.345 263.829 336.452 232.993 338.812C176.321 343.149 107.589 337.637 123.373 279.163Z" fill="#EDD000"/>
<path d="M131.821 276.107C142.447 235.904 176 227.259 208.581 242.437C236.684 255.529 282.88 262.759 317.759 247.603C322.239 245.655 326.183 251.529 323.249 255.82C317.692 263.955 310.205 273.164 301.652 279.133L301.655 279.132C306.861 277.425 310.115 285.233 305.649 288.712C302.368 291.269 298.648 293.277 294.623 293.96C294.623 293.96 294.703 293.967 294.856 293.98C299.635 294.385 300.929 301.599 296.669 304.093C292.677 306.431 288.123 308.344 283.595 308.655C283.595 308.655 283.803 308.748 284.215 308.907C288.273 310.46 288.604 316.815 284.701 318.847C275.637 323.564 259.315 329.24 231.319 331.441C179.867 335.489 117.47 330.397 131.821 276.107Z" fill="#FFDF00"/>
<path d="M220.752 307.408C219.544 307.408 218.327 307.396 217.109 307.375C186.097 306.821 157.867 299.291 136.317 287.285C136.583 284.373 137.144 281.275 138.049 277.963C144.848 253.075 161.887 241.795 181.745 241.795C190.416 241.795 199.628 243.948 208.755 248.057C224.405 255.103 246.14 260.248 267.98 260.248C282.285 260.248 296.637 258.04 309.351 252.713C309.911 252.479 310.46 252.372 310.985 252.372C314.347 252.372 316.749 256.727 314.416 260.025C309.299 267.257 302.408 275.445 294.529 280.749L294.532 280.748C294.993 280.603 295.439 280.536 295.863 280.536C299.84 280.536 301.933 286.479 298.219 289.272C295.196 291.545 291.769 293.329 288.06 293.933C288.06 293.933 288.135 293.94 288.277 293.952C288.787 293.995 289.247 294.125 289.668 294.312C270.071 302.589 246.343 307.408 220.752 307.408ZM184.501 249.281C174.471 249.281 165.139 251.844 157.783 257.444C154.611 259.857 154.965 264.145 158.404 266.375C177.588 278.812 202.101 285.972 227.803 285.973C228.312 285.973 228.817 285.971 229.327 285.965C252.544 285.707 273.54 279.617 289.852 269.915C290.573 269.103 291.271 268.295 291.917 267.505C293.567 265.493 292.204 262.653 290.012 262.653C289.713 262.653 289.4 262.705 289.076 262.82C281.763 265.405 273.371 266.529 264.628 266.529C247.141 266.529 228.243 262.035 213.716 255.744C204.075 251.568 193.976 249.281 184.501 249.281Z" fill="#FFE94D"/>
<path d="M227.803 285.973C202.101 285.972 177.588 278.812 158.404 266.375C154.965 264.145 154.611 259.857 157.783 257.444C165.139 251.844 174.471 249.281 184.501 249.281C193.976 249.281 204.075 251.568 213.716 255.744C228.243 262.035 247.141 266.529 264.628 266.529C273.371 266.529 281.763 265.405 289.076 262.82C289.4 262.705 289.713 262.653 290.012 262.653C292.204 262.653 293.567 265.493 291.917 267.505C291.271 268.295 290.573 269.103 289.852 269.915C273.54 279.617 252.544 285.707 229.327 285.965C228.817 285.971 228.312 285.973 227.803 285.973Z" fill="#FFED71"/>
</g>
<defs>
<filter id="filter0_d_426_1946" x="-3.99976" y="-0.00260925" width="396.222" height="404.472" filterUnits="userSpaceOnUse" color-interpolation-filters="sRGB">
<feFlood flood-opacity="0" result="BackgroundImageFix"/>
<feColorMatrix in="SourceAlpha" type="matrix" values="0 0 0 0 0 0 0 0 0 0 0 0 0 0 0 0 0 0 127 0" result="hardAlpha"/>
<feOffset dy="4"/>
<feGaussianBlur stdDeviation="2"/>
<feComposite in2="hardAlpha" operator="out"/>
<feColorMatrix type="matrix" values="0 0 0 0 0 0 0 0 0 0 0 0 0 0 0 0 0 0 0.25 0"/>
<feBlend mode="normal" in2="BackgroundImageFix" result="effect1_dropShadow_426_1946"/>
<feBlend mode="normal" in="SourceGraphic" in2="effect1_dropShadow_426_1946" result="shape"/>
</filter>
</defs>
</svg>
