<svg width="263" height="533" viewBox="0 0 263 533" fill="none" xmlns="http://www.w3.org/2000/svg">
<path d="M260.932 523.573C260.932 528.393 256.469 532.301 250.96 532.301L9.97203 532.301C4.46403 532.301 4.30817e-05 528.393 4.32924e-05 523.573L6.06536e-05 126.396C6.08643e-05 121.575 4.46405 117.667 9.97205 117.667L250.96 117.667C256.469 117.667 260.932 121.575 260.932 126.396L260.932 523.573Z" fill="#3AAA3D"/>
<path d="M251.107 123.757L13.6588 123.757C8.23209 123.757 3.83343 127.608 3.83343 132.36L3.83342 523.701C3.83342 528.451 8.23208 532.301 13.6587 532.301L250.96 532.301C256.469 532.301 260.932 528.393 260.932 523.573L260.932 132.36C260.932 127.608 256.533 123.757 251.107 123.757Z" fill="#41B93C"/>
<path d="M66.38 512.877C66.38 518.708 61.6534 523.433 55.8254 523.433L20.2054 523.433C14.3774 523.433 9.65202 518.708 9.65202 512.877L9.65204 137.648C9.65204 131.819 14.3774 127.095 20.2054 127.095L55.8254 127.095C61.6534 127.095 66.3801 131.819 66.3801 137.648L66.38 512.877Z" fill="#4ABC40"/>
<path d="M56.8654 134.231L24.7601 134.231C19.5068 134.231 15.2454 138.872 15.2454 144.597L15.2454 513.069C15.2454 518.791 19.5067 523.433 24.7601 523.433L55.8254 523.433C61.6534 523.433 66.3801 518.708 66.3801 512.877L66.3801 144.597C66.3801 138.872 62.1201 134.231 56.8654 134.231Z" fill="#52C04C"/>
<path d="M56.2761 145.457C54.1987 143.807 47.2721 143.468 44.3481 145.457C41.6961 147.26 40.8121 149.857 40.8121 155.288L40.8121 504.807C40.8121 510.233 42.9254 513.605 44.3481 514.637C47.2241 516.727 53.0667 517.165 55.8894 514.637C57.3027 513.371 59.8107 510.155 59.8107 504.625L59.8107 155.288C59.8107 149.857 59.1027 147.707 56.2761 145.457Z" fill="#6BC861"/>
<path d="M55.0988 158.791C53.8815 157.269 49.8202 156.957 48.1042 158.791C46.5508 160.453 46.0322 162.847 46.0322 167.851L46.0322 489.915C46.0322 494.917 47.2721 498.023 48.1041 498.973C49.7908 500.897 53.2188 501.304 54.8708 498.973C55.7001 497.808 57.1721 494.843 57.1721 489.748L57.1722 167.851C57.1722 162.847 56.7562 160.864 55.0988 158.791Z" fill="#86D279"/>
<path d="M55.0481 194.536C55.0481 210.172 55.0481 222.847 52.1321 222.847C49.1534 222.847 49.2187 210.172 49.2187 194.536C49.2187 178.9 48.4507 166.228 52.1321 166.228C55.0481 166.228 55.0481 178.9 55.0481 194.536Z" fill="white"/>
<path d="M126.865 513.655C126.865 519.485 122.14 524.211 116.312 524.211L80.692 524.211C74.8627 524.211 70.1374 519.485 70.1374 513.655L70.1374 138.427C70.1374 132.597 74.8627 127.872 80.6921 127.872L116.312 127.872C122.14 127.872 126.865 132.597 126.865 138.427L126.865 513.655Z" fill="#4ABC40"/>
<path d="M117.352 135.009L85.2481 135.009C79.9934 135.009 75.7334 139.649 75.7334 145.375L75.7334 513.845C75.7334 519.569 79.9934 524.211 85.248 524.211L116.312 524.211C122.14 524.211 126.865 519.485 126.865 513.655L126.865 145.375C126.865 139.649 122.608 135.009 117.352 135.009Z" fill="#52C04C"/>
<path d="M116.763 146.233C114.685 144.583 107.759 144.244 104.835 146.233C102.183 148.037 101.3 150.636 101.3 156.065L101.3 505.584C101.3 511.012 103.411 514.383 104.835 515.415C107.712 517.504 113.555 517.944 116.377 515.415C117.788 514.148 120.297 510.932 120.297 505.403L120.297 156.065C120.297 150.636 119.589 148.483 116.763 146.233Z" fill="#6BC861"/>
<path d="M115.585 159.568C114.368 158.048 110.307 157.735 108.591 159.568C107.037 161.232 106.519 163.625 106.519 168.629L106.519 490.693C106.519 495.693 107.759 498.8 108.591 499.751C110.279 501.675 113.704 502.08 115.359 499.751C116.187 498.585 117.66 495.621 117.66 490.527L117.66 168.629C117.66 163.625 117.243 161.641 115.585 159.568Z" fill="#86D279"/>
<path d="M115.535 195.315C115.535 210.949 115.535 223.624 112.621 223.624C109.639 223.624 109.705 210.949 109.705 195.315C109.705 179.677 108.937 167.004 112.621 167.004C115.535 167.004 115.535 179.677 115.535 195.315Z" fill="white"/>
<path d="M187.193 513.655C187.193 519.485 182.469 524.211 176.639 524.211L141.02 524.211C135.192 524.211 130.465 519.485 130.465 513.655L130.465 138.427C130.465 132.597 135.192 127.872 141.02 127.872L176.639 127.872C182.469 127.872 187.193 132.597 187.193 138.427L187.193 513.655Z" fill="#4ABC40"/>
<path d="M177.68 135.009L145.575 135.009C140.321 135.009 136.063 139.649 136.063 145.375L136.063 513.845C136.063 519.569 140.321 524.211 145.575 524.211L176.639 524.211C182.469 524.211 187.193 519.485 187.193 513.655L187.193 145.375C187.193 139.649 182.935 135.009 177.68 135.009Z" fill="#52C04C"/>
<path d="M177.092 146.233C175.015 144.583 168.088 144.244 165.163 146.233C162.509 148.037 161.628 150.636 161.628 156.065L161.628 505.584C161.628 511.012 163.741 514.383 165.163 515.415C168.04 517.504 173.883 517.944 176.704 515.415C178.119 514.148 180.627 510.932 180.627 505.403L180.627 156.065C180.627 150.636 179.919 148.483 177.092 146.233Z" fill="#6BC861"/>
<path d="M175.915 159.568C174.697 158.048 170.635 157.735 168.92 159.568C167.364 161.232 166.847 163.625 166.847 168.629L166.847 490.693C166.847 495.693 168.085 498.8 168.92 499.751C170.608 501.675 174.033 502.08 175.688 499.751C176.516 498.585 177.988 495.621 177.988 490.527L177.988 168.629C177.988 163.625 177.572 161.641 175.915 159.568Z" fill="#86D279"/>
<path d="M175.861 195.315C175.861 210.949 175.861 223.624 172.948 223.624C169.967 223.624 170.036 210.949 170.036 195.315C170.036 179.677 169.267 167.004 172.948 167.004C175.861 167.004 175.861 179.677 175.861 195.315Z" fill="white"/>
<path d="M248.229 513.655C248.229 519.485 243.505 524.211 237.675 524.211L202.057 524.211C196.228 524.211 191.501 519.485 191.501 513.655L191.501 138.427C191.501 132.597 196.228 127.872 202.057 127.872L237.675 127.872C243.505 127.872 248.229 132.597 248.229 138.427L248.229 513.655Z" fill="#4ABC40"/>
<path d="M238.717 135.009L206.612 135.009C201.356 135.009 197.097 139.649 197.097 145.375L197.097 513.845C197.097 519.569 201.356 524.211 206.612 524.211L237.675 524.211C243.505 524.211 248.229 519.485 248.229 513.655L248.229 145.375C248.229 139.649 243.969 135.009 238.717 135.009Z" fill="#52C04C"/>
<path d="M238.127 146.233C236.049 144.583 229.123 144.244 226.197 146.233C223.547 148.037 222.663 150.636 222.663 156.065L222.663 505.584C222.663 511.012 224.777 514.383 226.197 515.415C229.075 517.504 234.917 517.944 237.739 515.415C239.153 514.148 241.663 510.932 241.663 505.403L241.663 156.065C241.663 150.636 240.955 148.483 238.127 146.233Z" fill="#6BC861"/>
<path d="M236.952 159.568C235.732 158.048 231.671 157.735 229.955 159.568C228.4 161.232 227.883 163.625 227.883 168.629L227.883 490.693C227.883 495.693 229.12 498.8 229.955 499.751C231.643 501.675 235.068 502.08 236.724 499.751C237.553 498.585 239.021 495.621 239.021 490.527L239.021 168.629C239.021 163.625 238.607 161.641 236.952 159.568Z" fill="#86D279"/>
<path d="M236.897 195.315C236.897 210.949 236.897 223.624 233.984 223.624C231.003 223.624 231.069 210.949 231.069 195.315C231.069 179.677 230.3 167.004 233.984 167.004C236.897 167.004 236.897 179.677 236.897 195.315Z" fill="white"/>
<path d="M262.712 109.909C262.712 115.815 258.24 120.599 252.723 120.599L11.3469 120.599C5.83222 120.599 1.35888 115.815 1.35888 109.909L1.35889 10.6894C1.35889 4.78536 5.83222 1.95536e-07 11.3469 4.3659e-07L252.723 1.09875e-05C258.24 1.12286e-05 262.712 4.78537 262.712 10.6894L262.712 109.909Z" fill="#41B93C"/>
<path d="M248.23 100.663C248.23 105.796 244.253 109.957 239.348 109.957L24.7215 109.957C19.8175 109.957 15.8415 105.796 15.8415 100.663L15.8415 14.3814C15.8415 9.24672 19.8175 5.08539 24.7215 5.08539L239.348 5.0854C244.253 5.0854 248.23 9.24673 248.23 14.3814L248.23 100.663Z" fill="#52C04C"/>
<path d="M241.663 86.012C239.348 107.916 180.627 107.916 177.988 98.0334C171.287 72.9467 213.231 85.7653 213.231 63.58C213.231 41.3987 210.128 10.664 222.663 10.664C244.516 10.664 245.419 50.4427 241.663 86.012Z" fill="#6BC861"/>
<path d="M237.385 84.204C235.645 100.66 191.529 100.66 189.545 93.2334C184.513 74.388 216.021 84.0174 216.021 67.352C216.021 50.6867 213.692 27.596 223.112 27.596C239.528 27.596 240.207 57.48 237.385 84.204Z" fill="#86D279"/>
<path d="M236.048 82.6721C234.861 93.8907 204.781 93.8907 203.429 88.8294C199.997 75.9787 221.483 82.5454 221.483 71.1814C221.483 59.8174 219.895 44.0734 226.315 44.0734C237.509 44.0734 237.972 64.4507 236.048 82.6721Z" fill="white"/>
<path d="M23.6988 29.0307C26.0108 7.12802 84.7334 7.12803 87.3734 17.0107C94.0721 42.096 52.1308 29.2787 52.1308 51.46C52.1308 73.6454 55.2321 104.379 42.6961 104.379C20.8441 104.379 19.9428 64.6013 23.6988 29.0307Z" fill="#6BC861"/>
<path d="M27.9761 30.84C29.7161 14.3854 73.8307 14.3854 75.8147 21.8094C80.8481 40.6547 49.3401 31.0254 49.3401 47.692C49.3401 64.356 51.6694 87.448 42.2481 87.448C25.8321 87.448 25.1534 57.5627 27.9761 30.84Z" fill="#86D279"/>
</svg>
