<svg width="962" height="529" viewBox="0 0 962 529" fill="none" xmlns="http://www.w3.org/2000/svg">
<path d="M1.75467 234.92C17.6573 440.587 196.648 546.947 464.376 526.24C732.103 505.533 976.215 223.787 960.309 18.0667C959.853 12.1734 959.255 6.45343 958.461 0.893432L897.503 1.81342L104.977 13.4934L73.3547 13.9734C22.4907 78.88 -4.40666 155.24 1.75467 234.92Z" fill="#81B214"/>
<path d="M2.78132 246.187C2.41198 242.667 2.08399 239.107 1.80266 235.533C2.08132 239.08 2.40799 242.573 2.78399 246.053C2.78265 246.093 2.78132 246.133 2.78132 246.187ZM1.79198 235.4C1.77865 235.24 1.76666 235.08 1.75466 234.92C1.76666 235.093 1.77865 235.24 1.79198 235.4ZM1.67998 233.947C1.67065 233.813 1.66132 233.693 1.65332 233.573C1.66266 233.693 1.67065 233.813 1.67998 233.947ZM1.64665 233.493C1.01332 224.747 0.763984 216.013 0.930651 207.333C0.778651 216 1.01332 224.733 1.64665 233.493ZM960.907 45.9866C961.201 36.8 961.027 27.7066 960.363 18.7733C961.027 27.6933 961.211 36.8 960.908 45.9866H960.907ZM960.349 18.5866C960.345 18.5333 960.34 18.4667 960.336 18.4267C960.34 18.48 960.344 18.5333 960.349 18.5866Z" fill="#D3DFA6"/>
<path d="M399.373 500.293C180.951 500.293 32.9706 407.653 2.93065 240.04C2.87998 242.027 2.83065 244.013 2.78398 246.053C2.40798 242.573 2.08132 239.08 1.80265 235.533C1.79865 235.493 1.79464 235.453 1.79198 235.4C1.77864 235.24 1.76666 235.093 1.75466 234.92C1.74399 234.8 1.73466 234.667 1.72399 234.533C1.72132 234.493 1.71865 234.453 1.71598 234.427C1.70665 234.307 1.69866 234.187 1.68932 234.08C1.68666 234.027 1.68265 233.987 1.67998 233.947C1.67065 233.813 1.66265 233.693 1.65332 233.573C1.65065 233.547 1.64931 233.52 1.64665 233.493C1.01331 224.733 0.778648 216 0.930648 207.333C0.958648 205.88 0.998652 204.413 1.05065 202.96C30.916 369.547 177.937 461.613 394.977 461.613C415.748 461.6 437.169 460.76 459.181 459.067C705.723 440 932.232 199.52 954.152 0.973345L958.461 0.893397C959.255 6.4534 959.853 12.1734 960.309 18.0667C960.317 18.1867 960.327 18.3067 960.336 18.4267C960.34 18.4667 960.345 18.5334 960.349 18.5867C960.353 18.6534 960.357 18.7067 960.363 18.7733C961.027 27.7067 961.201 36.8 960.907 45.9867L960.868 46.1467C932.921 244.08 708.205 478.84 463.991 497.733C441.839 499.44 420.277 500.293 399.373 500.293Z" fill="#6B9C0D"/>
<path d="M464.376 526.24C464.507 526.227 464.631 526.213 464.761 526.213C464.636 526.213 464.501 526.227 464.376 526.24ZM464.877 526.2C464.975 526.187 465.044 526.187 465.143 526.173C465.064 526.187 464.955 526.2 464.877 526.2ZM465.289 526.173C465.371 526.16 465.449 526.16 465.532 526.147C465.453 526.16 465.368 526.16 465.289 526.173ZM465.664 526.133C465.745 526.133 465.832 526.12 465.913 526.12C465.836 526.12 465.743 526.133 465.664 526.133ZM466.069 526.107C466.135 526.093 466.233 526.093 466.299 526.08C466.22 526.093 466.148 526.093 466.069 526.107ZM466.449 526.08C466.531 526.067 466.603 526.067 466.684 526.053C466.607 526.067 466.527 526.067 466.449 526.08ZM466.835 526.04C466.916 526.04 466.991 526.027 467.072 526.027C466.995 526.027 466.913 526.04 466.835 526.04ZM467.212 526.013C467.295 526 467.372 526 467.453 525.987C467.376 526 467.291 526 467.212 526.013ZM467.615 525.973C467.696 525.973 467.752 525.96 467.833 525.96C467.756 525.96 467.692 525.973 467.615 525.973ZM467.997 525.947C468.063 525.933 468.156 525.933 468.221 525.92C468.144 525.933 468.076 525.933 467.997 525.947ZM468.379 525.907C468.46 525.907 468.533 525.893 468.615 525.893C468.537 525.893 468.457 525.907 468.379 525.907ZM468.753 525.88C468.835 525.867 468.913 525.867 468.995 525.853C468.917 525.867 468.832 525.867 468.753 525.88ZM469.152 525.84C469.233 525.84 469.299 525.827 469.38 525.827C469.303 525.827 469.229 525.84 469.152 525.84ZM469.528 525.813C469.609 525.8 469.689 525.8 469.771 525.787C469.693 525.8 469.605 525.8 469.528 525.813ZM469.913 525.773C469.995 525.76 470.085 525.76 470.167 525.747C470.073 525.76 470.007 525.76 469.913 525.773ZM470.291 525.733C470.373 525.733 470.469 525.72 470.551 525.72C470.457 525.72 470.385 525.733 470.291 525.733ZM470.684 525.707C470.765 525.693 470.864 525.68 470.947 525.68C470.868 525.68 470.761 525.693 470.684 525.707ZM471.061 525.667C471.175 525.653 471.244 525.653 471.359 525.64C471.264 525.653 471.155 525.653 471.061 525.667ZM471.445 525.627C471.559 525.627 471.669 525.613 471.783 525.6C471.675 525.613 471.555 525.627 471.445 525.627ZM471.827 525.6C471.94 525.587 472.055 525.573 472.169 525.56C472.045 525.573 471.951 525.587 471.827 525.6ZM472.217 525.56C472.74 525.507 473.243 525.453 473.765 525.4C473.251 525.453 472.732 525.507 472.217 525.56ZM473.844 525.4C473.957 525.387 474.048 525.373 474.161 525.36C474.052 525.373 473.952 525.387 473.844 525.4ZM474.204 525.36C474.319 525.347 474.432 525.333 474.545 525.32C474.436 525.333 474.313 525.347 474.204 525.36ZM474.609 525.32C474.723 525.307 474.817 525.293 474.932 525.293C474.823 525.293 474.717 525.307 474.609 525.32ZM475.008 525.28C475.105 525.267 475.215 525.253 475.313 525.253C475.204 525.253 475.116 525.267 475.008 525.28ZM475.404 525.24C475.501 525.227 475.611 525.213 475.708 525.2C475.615 525.213 475.497 525.227 475.404 525.24ZM475.779 525.2C475.877 525.187 475.995 525.173 476.092 525.16C475.984 525.173 475.888 525.187 475.779 525.2ZM476.172 525.16C476.269 525.147 476.379 525.133 476.476 525.12C476.368 525.133 476.281 525.147 476.172 525.16ZM476.569 525.12C476.667 525.107 476.751 525.093 476.849 525.08C476.756 525.093 476.663 525.107 476.569 525.12ZM476.965 525.067C477.063 525.067 477.147 525.053 477.244 525.04C477.151 525.053 477.059 525.067 476.965 525.067ZM477.343 525.027C477.441 525.027 477.539 525.013 477.636 525C477.527 525.013 477.452 525.013 477.343 525.027ZM477.724 524.987C477.821 524.973 477.941 524.96 478.04 524.96C477.931 524.973 477.833 524.973 477.724 524.987ZM478.104 524.947C478.217 524.933 478.315 524.92 478.428 524.907C478.319 524.92 478.213 524.933 478.104 524.947ZM478.492 524.907C478.621 524.893 478.716 524.88 478.847 524.867C478.721 524.88 478.616 524.893 478.492 524.907ZM478.868 524.867C530.325 519.067 580.728 503.8 628.415 481.467C580.732 503.8 530.323 519.067 478.868 524.867ZM628.459 481.44C628.564 481.387 628.665 481.347 628.771 481.293C628.669 481.347 628.559 481.4 628.459 481.44ZM628.828 481.267C628.919 481.227 629.025 481.173 629.116 481.133C629.015 481.173 628.929 481.227 628.828 481.267ZM629.215 481.08C629.305 481.04 629.379 481.013 629.469 480.96C629.383 481.013 629.3 481.04 629.215 481.08ZM629.573 480.92C629.664 480.88 629.728 480.84 629.819 480.8C629.747 480.84 629.645 480.88 629.573 480.92ZM629.948 480.747C630.008 480.707 630.103 480.667 630.163 480.64C630.091 480.667 630.02 480.707 629.948 480.747ZM630.312 480.573C630.372 480.533 630.441 480.507 630.501 480.48C630.444 480.507 630.369 480.547 630.312 480.573ZM630.691 480.387C630.736 480.373 630.789 480.347 630.835 480.32C630.792 480.347 630.733 480.373 630.691 480.387ZM631.045 480.227C631.091 480.2 631.129 480.187 631.175 480.16C631.131 480.173 631.088 480.2 631.045 480.227ZM631.419 480.04C631.449 480.027 631.464 480.027 631.493 480.013C631.465 480.027 631.448 480.027 631.419 480.04ZM632.127 479.707C632.143 479.693 632.141 479.693 632.156 479.693L632.127 479.707ZM21.3 325.093C12.0946 300.8 5.84931 274.467 2.78131 246.187C2.78131 246.133 2.78265 246.093 2.78398 246.053C5.84265 274.387 12.0826 300.76 21.3 325.093Z" fill="#AFC36C"/>
<path d="M400.211 528.787C208.548 528.787 71.4573 456.96 21.428 325.427C21.412 325.387 21.388 325.32 21.372 325.28C21.344 325.213 21.3267 325.16 21.3 325.093C12.0827 300.76 5.84266 274.387 2.784 246.053C2.83066 244.013 2.87999 242.027 2.93066 240.04C32.9707 407.653 180.951 500.293 399.373 500.293C420.277 500.293 441.839 499.44 463.991 497.733C708.205 478.84 932.921 244.08 960.868 46.1467C955.759 202.76 814.379 392.667 632.156 479.693C632.141 479.693 632.143 479.693 632.127 479.707C632.027 479.747 631.936 479.8 631.836 479.84C631.821 479.853 631.784 479.867 631.769 479.88C631.669 479.92 631.595 479.96 631.493 480.013C631.464 480.027 631.449 480.027 631.419 480.04C631.347 480.08 631.247 480.12 631.175 480.16C631.129 480.187 631.091 480.2 631.045 480.227C630.973 480.253 630.907 480.28 630.835 480.32C630.789 480.347 630.736 480.373 630.691 480.387C630.619 480.427 630.573 480.44 630.501 480.48C630.441 480.507 630.372 480.533 630.312 480.573C630.253 480.6 630.22 480.613 630.163 480.64C630.103 480.667 630.008 480.707 629.948 480.747C629.904 480.76 629.861 480.787 629.819 480.8C629.728 480.84 629.664 480.88 629.573 480.92C629.529 480.933 629.512 480.947 629.469 480.96C629.379 481.013 629.305 481.04 629.215 481.08C629.185 481.093 629.144 481.12 629.116 481.133C629.025 481.173 628.919 481.227 628.828 481.267C628.813 481.28 628.785 481.293 628.771 481.293C628.665 481.347 628.564 481.387 628.459 481.44C628.444 481.453 628.428 481.453 628.415 481.467C580.728 503.8 530.325 519.067 478.868 524.867H478.847C478.716 524.88 478.621 524.893 478.492 524.907C478.476 524.907 478.444 524.907 478.428 524.907C478.315 524.92 478.217 524.933 478.104 524.947C478.073 524.947 478.071 524.947 478.04 524.96C477.941 524.96 477.821 524.973 477.724 524.987C477.708 524.987 477.652 525 477.636 525C477.539 525.013 477.441 525.027 477.343 525.027C477.312 525.04 477.276 525.04 477.244 525.04C477.147 525.053 477.063 525.067 476.965 525.067C476.935 525.08 476.88 525.08 476.849 525.08C476.751 525.093 476.667 525.107 476.569 525.12C476.537 525.12 476.508 525.12 476.476 525.12C476.379 525.133 476.269 525.147 476.172 525.16C476.156 525.16 476.108 525.16 476.092 525.16C475.995 525.173 475.877 525.187 475.779 525.2C475.748 525.2 475.74 525.2 475.708 525.2C475.611 525.213 475.501 525.227 475.404 525.24C475.372 525.24 475.344 525.24 475.313 525.253C475.215 525.253 475.105 525.267 475.008 525.28C474.992 525.28 474.948 525.28 474.932 525.293C474.817 525.293 474.723 525.307 474.609 525.32C474.577 525.32 474.576 525.32 474.545 525.32C474.432 525.333 474.319 525.347 474.204 525.36C474.189 525.36 474.177 525.36 474.161 525.36C474.048 525.373 473.957 525.387 473.844 525.4C473.828 525.4 473.78 525.4 473.765 525.4C473.243 525.453 472.74 525.507 472.217 525.56C472.201 525.56 472.185 525.56 472.169 525.56C472.055 525.573 471.94 525.587 471.827 525.6C471.811 525.6 471.799 525.6 471.783 525.6C471.669 525.613 471.559 525.627 471.445 525.627C471.413 525.64 471.389 525.64 471.359 525.64C471.244 525.653 471.175 525.653 471.061 525.667C471.015 525.667 470.993 525.68 470.947 525.68C470.864 525.68 470.765 525.693 470.684 525.707C470.637 525.707 470.597 525.707 470.551 525.72C470.469 525.72 470.373 525.733 470.291 525.733C470.26 525.747 470.197 525.747 470.167 525.747C470.085 525.76 469.995 525.76 469.913 525.773C469.867 525.773 469.817 525.787 469.771 525.787C469.689 525.8 469.609 525.8 469.528 525.813C469.481 525.813 469.427 525.813 469.38 525.827C469.299 525.827 469.233 525.84 469.152 525.84C469.105 525.84 469.041 525.853 468.995 525.853C468.913 525.867 468.835 525.867 468.753 525.88C468.707 525.88 468.661 525.88 468.615 525.893C468.533 525.893 468.46 525.907 468.379 525.907C468.316 525.92 468.284 525.92 468.221 525.92C468.156 525.933 468.063 525.933 467.997 525.947C467.951 525.947 467.88 525.947 467.833 525.96C467.752 525.96 467.696 525.973 467.615 525.973C467.568 525.973 467.5 525.987 467.453 525.987C467.372 526 467.295 526 467.212 526.013C467.165 526.013 467.12 526.013 467.072 526.027C466.991 526.027 466.916 526.04 466.835 526.04C466.772 526.053 466.747 526.053 466.684 526.053C466.603 526.067 466.531 526.067 466.449 526.08C466.403 526.08 466.345 526.08 466.299 526.08C466.233 526.093 466.135 526.093 466.069 526.107C466.023 526.107 465.96 526.12 465.913 526.12C465.832 526.12 465.745 526.133 465.664 526.133C465.617 526.147 465.579 526.147 465.532 526.147C465.449 526.16 465.371 526.16 465.289 526.173C465.227 526.173 465.205 526.173 465.143 526.173C465.044 526.187 464.975 526.187 464.877 526.2C464.831 526.2 464.808 526.2 464.761 526.213C464.631 526.213 464.507 526.227 464.376 526.24C442.372 527.947 420.975 528.787 400.211 528.787Z" fill="#598809"/>
<path d="M59.156 183.293C64.3213 250.107 89.196 304.893 130.467 346.507C161.257 377.667 201.301 401.387 249.152 417.187C309.272 437.013 381.62 444.267 463.525 437.933C510.499 434.307 556.656 421.48 600.264 401.893C619.353 393.293 637.976 383.373 655.995 372.36C716.453 335.413 769.919 286 811.047 231.667C823.405 215.32 834.691 198.6 844.707 181.547C880.041 121.533 899.764 58.6133 897.503 1.81333L104.977 13.4933C101.351 19.0267 97.9853 24.5867 94.7867 30.2933C83.76 49.7067 75.0867 69.9733 68.9613 90.9333C60.1867 120.667 56.7093 151.667 59.156 183.293Z" fill="#FF2442"/>
<path d="M723.027 91.4266C724.131 105.693 729.231 116.947 734.42 116.533C739.609 116.133 742.921 104.24 741.819 89.9733C740.715 75.7066 735.613 64.4666 730.424 64.8666C725.236 65.2666 721.924 77.16 723.027 91.4266Z" fill="#512405"/>
<path d="M434.9 264.453C436.003 278.733 441.104 289.973 446.293 289.573C451.481 289.173 454.793 277.28 453.691 263.013C452.587 248.733 447.487 237.493 442.297 237.893C437.108 238.293 433.796 250.187 434.9 264.453Z" fill="#512405"/>
<path d="M328.807 371.427C329.909 385.707 335.011 396.947 340.199 396.547C345.388 396.147 348.701 384.253 347.597 369.973C346.493 355.707 341.392 344.467 336.204 344.867C331.015 345.267 327.703 357.16 328.807 371.427Z" fill="#512405"/>
<path d="M566.829 155.493C567.933 169.76 573.035 181 578.224 180.6C583.412 180.2 586.724 168.307 585.621 154.04C584.519 139.76 579.417 128.52 574.228 128.92C569.039 129.32 565.727 141.227 566.829 155.493Z" fill="#512405"/>
<path d="M212.617 78.9066C213.72 93.1866 218.821 104.427 224.011 104.027C229.2 103.613 232.512 91.7199 231.408 77.4533C230.304 63.1866 225.203 51.9466 220.015 52.3466C214.825 52.7466 211.513 64.6399 212.617 78.9066Z" fill="#512405"/>
<path d="M701.212 212.68C702.315 226.947 707.416 238.187 712.605 237.787C717.795 237.387 721.107 225.493 720.003 211.227C718.9 196.96 713.799 185.707 708.609 186.12C703.42 186.52 700.108 198.413 701.212 212.68Z" fill="#512405"/>
<path d="M396.276 101.093C397.38 115.373 402.48 126.613 407.669 126.213C412.859 125.813 416.171 113.92 415.068 99.6399C413.964 85.3732 408.863 74.1333 403.673 74.5333C398.485 74.9333 395.173 86.8266 396.276 101.093Z" fill="#512405"/>
<path d="M169.36 259C170.463 273.267 175.564 284.507 180.753 284.107C185.941 283.707 189.253 271.813 188.151 257.547C187.047 243.28 181.947 232.04 176.757 232.44C171.568 232.84 168.256 244.733 169.36 259Z" fill="#512405"/>
<path d="M294.951 202.507C296.055 216.773 301.155 228.013 306.344 227.613C311.533 227.213 314.845 215.32 313.741 201.053C312.639 186.787 307.537 175.533 302.348 175.933C297.16 176.347 293.848 188.24 294.951 202.507Z" fill="#512405"/>
<path d="M598.688 298.587C599.791 312.853 604.892 324.093 610.081 323.693C615.271 323.293 618.583 311.4 617.479 297.133C616.376 282.853 611.275 271.613 606.085 272.013C600.896 272.413 597.584 284.307 598.688 298.587Z" fill="#512405"/>
<path d="M811.047 231.667C789.551 170.387 730.107 73.96 569.063 73.96C525.527 73.96 474.535 81.0133 414.892 97.7066C413.524 84.6133 408.801 74.52 403.944 74.52C403.853 74.52 403.764 74.5333 403.673 74.5333C398.485 74.9333 395.173 86.8267 396.276 101.093C396.325 101.747 396.384 102.373 396.449 103C318.8 125.027 257.543 133.813 209.235 133.813C138.081 133.813 95.004 114.76 68.9613 90.9333C75.0866 69.9733 83.76 49.7067 94.7866 30.2933C116.701 53.4133 152.884 73.36 212.567 78.2133C212.583 78.44 212.599 78.6799 212.617 78.9066C213.701 92.9333 218.645 104.027 223.74 104.027C223.831 104.027 223.92 104.027 224.011 104.027C228.985 103.64 232.235 92.6933 231.523 79.2133C234.759 79.2933 238.06 79.3466 241.42 79.3466C291.631 79.3466 355.811 69.8533 437.839 45.88C501.495 27.28 555.484 19.4933 601.26 19.4933C766.159 19.4933 824.529 120.573 844.707 181.547C834.691 198.6 823.405 215.32 811.047 231.667ZM730.693 64.8533C730.604 64.8533 730.515 64.8533 730.424 64.8666C725.236 65.2666 721.924 77.16 723.027 91.4267C724.111 105.453 729.056 116.547 734.149 116.547C734.24 116.547 734.329 116.547 734.42 116.533C739.609 116.133 742.921 104.24 741.819 89.9733C740.733 75.9466 735.789 64.8533 730.693 64.8533Z" fill="#FF4962"/>
<path d="M734.149 116.547C729.056 116.547 724.111 105.453 723.027 91.4266C721.924 77.16 725.236 65.2666 730.424 64.8666C730.515 64.8533 730.604 64.8533 730.693 64.8533C735.789 64.8533 740.733 75.9466 741.819 89.9733C742.921 104.24 739.609 116.133 734.42 116.533C734.329 116.547 734.24 116.547 734.149 116.547Z" fill="#6E492F"/>
<path d="M223.74 104.027C218.645 104.027 213.701 92.9332 212.617 78.9066C212.599 78.6799 212.583 78.4399 212.567 78.2133C218.64 78.7066 224.953 79.0533 231.523 79.2133C232.235 92.6933 228.985 103.64 224.011 104.027C223.92 104.027 223.831 104.027 223.74 104.027Z" fill="#6E492F"/>
<path d="M396.449 103C396.384 102.373 396.325 101.747 396.276 101.093C395.173 86.8267 398.485 74.9333 403.673 74.5333C403.764 74.5333 403.853 74.52 403.944 74.52C408.801 74.52 413.524 84.6133 414.892 97.7066C411.831 98.5733 408.769 99.44 405.663 100.347C402.564 101.253 399.497 102.147 396.449 103Z" fill="#6E492F"/>
<path d="M844.707 181.547C824.529 120.573 766.159 19.4933 601.26 19.4933C555.484 19.4933 501.495 27.28 437.839 45.88C355.811 69.8533 291.631 79.3466 241.42 79.3466C238.06 79.3466 234.759 79.2933 231.523 79.2133C231.492 78.64 231.453 78.0533 231.408 77.4533C230.324 63.4399 225.379 52.3333 220.284 52.3333C220.195 52.3333 220.105 52.3333 220.015 52.3466C214.911 52.7466 211.623 64.2533 212.567 78.2133C152.884 73.36 116.701 53.4133 94.7866 30.2933C97.9853 24.5866 101.351 19.0266 104.977 13.4933L897.503 1.81329C897.621 4.81329 897.68 7.8266 897.677 10.8533C897.64 65.2399 878.177 124.693 844.707 181.547Z" fill="#FF687C"/>
<path d="M231.523 79.2134C224.953 79.0534 218.64 78.7067 212.567 78.2134C211.623 64.2534 214.911 52.7467 220.015 52.3467C220.105 52.3334 220.195 52.3334 220.284 52.3334C225.379 52.3334 230.324 63.44 231.408 77.4534C231.453 78.0534 231.492 78.64 231.523 79.2134Z" fill="#866852"/>
<path d="M249.152 417.187C201.301 401.387 161.257 377.667 130.467 346.507C144.112 349.347 159.863 351.04 178.052 351.04C219.441 351.04 273.409 342.28 343.6 318.28C387.181 303.4 426.705 297.2 462.325 297.2C549.855 297.2 613.763 334.613 655.995 372.36C637.976 383.373 619.353 393.293 600.264 401.893C564.373 382.987 520.375 369.547 467.909 369.547C432.283 369.547 392.76 375.747 349.195 390.627C347.775 391.12 346.361 391.6 344.955 392.067C347.201 387.267 348.304 379.107 347.597 369.973C346.513 355.96 341.568 344.853 336.473 344.853C336.384 344.853 336.295 344.867 336.204 344.867C331.015 345.267 327.703 357.16 328.807 371.427C329.64 382.213 332.756 391.267 336.467 394.88C303.828 405.48 274.836 412.667 249.152 417.187Z" fill="#DE1F39"/>
<path d="M336.467 394.88C332.756 391.267 329.64 382.213 328.807 371.427C327.703 357.16 331.015 345.267 336.204 344.867C336.295 344.867 336.384 344.853 336.473 344.853C341.568 344.853 346.513 355.96 347.597 369.973C348.304 379.107 347.201 387.267 344.955 392.067C342.099 393.027 339.269 393.96 336.467 394.88Z" fill="#471F04"/>
<path d="M407.355 440.16C348.268 440.16 295.129 432.347 249.152 417.187C274.836 412.667 303.828 405.48 336.467 394.88C337.583 395.96 338.752 396.547 339.929 396.56C340.02 396.56 340.109 396.547 340.199 396.547C342.067 396.4 343.692 394.76 344.955 392.067C346.361 391.6 347.775 391.12 349.195 390.627C392.76 375.747 432.283 369.547 467.909 369.547C520.375 369.547 564.373 382.987 600.264 401.893C556.656 421.48 510.499 434.307 463.525 437.933C444.259 439.427 425.529 440.16 407.355 440.16Z" fill="#C11B32"/>
<path d="M339.929 396.56C338.752 396.547 337.583 395.96 336.467 394.88C339.269 393.96 342.099 393.027 344.955 392.067C343.692 394.76 342.067 396.4 340.199 396.547C340.109 396.547 340.02 396.56 339.929 396.56Z" fill="#3E1B03"/>
<path d="M541.005 181.867C500.529 181.867 468.671 168.307 467.188 149.133C465.532 127.733 502.364 107.427 549.455 103.787C554.361 103.413 559.189 103.227 563.897 103.227C604.372 103.227 636.232 116.773 637.715 135.947C639.036 153.04 615.815 169.44 582.424 177.2C585.039 172.613 586.384 163.893 585.621 154.04C584.537 140.013 579.592 128.92 574.497 128.92C574.407 128.92 574.317 128.92 574.228 128.92C569.039 129.32 565.727 141.227 566.829 155.493C567.657 166.2 570.737 175.2 574.416 178.853C568.341 179.973 561.995 180.8 555.448 181.307C550.541 181.68 545.712 181.867 541.005 181.867Z" fill="#FF4962"/>
<path d="M574.416 178.853C570.737 175.2 567.657 166.2 566.829 155.493C565.727 141.227 569.039 129.32 574.228 128.92C574.317 128.92 574.407 128.92 574.497 128.92C579.592 128.92 584.537 140.013 585.621 154.04C586.384 163.893 585.039 172.613 582.424 177.2C579.816 177.813 577.141 178.36 574.416 178.853Z" fill="#6E492F"/>
</svg>
